<?xml version="1.0" encoding="UTF-8" standalone="no"?>
<svg
   viewBox="0 0 1280 320"
   width="1280"
   height="320"
   role="img"
   aria-label="Nexum helios — in-process Ethereum light client"
   font-family="'JetBrains Mono','IBM Plex Mono',ui-monospace,Menlo,Consolas,'Liberation Mono',monospace"
   version="1.1"
   id="svg11"
   xmlns="http://www.w3.org/2000/svg"
   xmlns:svg="http://www.w3.org/2000/svg">
  <defs
     id="defs11" />
  <rect
     width="1280"
     height="320"
     fill="#0a0b0a"
     id="rect1" />
  <g
     stroke="#5e7c4e"
     stroke-width="1"
     fill="none"
     id="g4">
    <path
       d="M24 24 L24 56 M24 24 L56 24"
       id="path1" />
    <path
       d="M1256 24 L1256 56 M1256 24 L1224 24"
       id="path2" />
    <path
       d="M24 296 L24 264 M24 296 L56 296"
       id="path3" />
    <path
       d="M1256 296 L1256 264 M1256 296 L1224 296"
       id="path4" />
  </g>
  <circle
     cx="74"
     cy="60"
     r="5"
     fill="#a8d68a"
     id="circle4" />
  <path
     d="M 93.296,65 V 53.32 h 2.192 l 3.392,9.712 Q 98.848,62.584 98.8,61.944 98.752,61.304 98.72,60.616 98.704,59.928 98.704,59.352 V 53.32 h 1.6 V 65 h -2.176 l -3.392,-9.712 q 0.032,0.432 0.064,1.056 0.048,0.608 0.08,1.28 0.032,0.672 0.032,1.248 V 65 Z m 13.00801,0 V 53.32 h 6.864 v 1.536 h -5.168 v 3.328 h 4.608 v 1.488 h -4.608 v 3.792 h 5.168 V 65 Z m 11.84,0 3.296,-5.952 -3.104,-5.728 h 1.952 l 1.632,3.184 q 0.144,0.304 0.288,0.608 0.144,0.304 0.224,0.464 0.064,-0.16 0.192,-0.464 0.144,-0.304 0.304,-0.608 l 1.664,-3.184 h 1.872 l -3.104,5.664 3.296,6.016 h -1.952 l -1.808,-3.456 q -0.16,-0.304 -0.304,-0.608 -0.144,-0.32 -0.224,-0.496 -0.064,0.176 -0.208,0.496 -0.144,0.304 -0.288,0.592 l -1.84,3.472 z m 17.05601,0.16 q -1.68,0 -2.592,-0.912 -0.912,-0.928 -0.912,-2.512 V 53.32 h 1.728 v 8.4 q 0,0.896 0.448,1.408 0.448,0.512 1.328,0.512 0.88,0 1.328,-0.512 0.448,-0.512 0.448,-1.408 v -8.4 h 1.728 v 8.416 q 0,1.6 -0.912,2.512 -0.912,0.912 -2.592,0.912 z m 9.008,-0.16 V 53.32 h 2.368 l 1.392,5.04 1.44,-5.04 h 2.384 V 65 h -1.632 v -5.216 q 0,-0.896 0.032,-1.936 0.048,-1.056 0.112,-2.08 0.064,-1.024 0.144,-1.856 l -1.76,5.952 h -1.456 l -1.696,-5.808 q 0.144,1.136 0.224,2.608 0.08,1.472 0.08,3.12 V 65 Z"
     id="text4"
     style="font-weight:600;font-size:16px;letter-spacing:3.2;fill:#d6d6cf"
     aria-label="NEXUM" />
  <line
     x1="160"
     y1="48"
     x2="160"
     y2="72"
     stroke="#1f221f"
     stroke-width="1"
     id="line4" />
  <path
     d="m 173.288,65 v -7.7 h 1.26 v 1.47 h 0.014 q 0.098,-0.77 0.63,-1.19 0.532,-0.42 1.414,-0.42 1.162,0 1.848,0.714 0.686,0.714 0.686,1.946 V 65 h -1.26 v -4.956 q 0,-0.882 -0.448,-1.344 -0.434,-0.476 -1.19,-0.476 -0.784,0 -1.246,0.49 -0.448,0.49 -0.448,1.386 V 65 Z m 9.41201,0 2.73,-3.962 -2.562,-3.738 h 1.484 l 1.526,2.38 q 0.098,0.154 0.182,0.336 0.098,0.182 0.154,0.294 0.042,-0.112 0.126,-0.294 0.098,-0.182 0.196,-0.336 l 1.526,-2.38 h 1.484 l -2.562,3.752 2.716,3.948 h -1.484 l -1.652,-2.52 q -0.098,-0.154 -0.196,-0.35 -0.084,-0.21 -0.154,-0.336 -0.056,0.126 -0.168,0.336 -0.098,0.196 -0.21,0.35 l -1.652,2.52 z m 10.14,0 v -7.7 h 1.092 v 1.022 h 0.028 q 0.07,-0.518 0.406,-0.84 0.35,-0.322 0.882,-0.322 0.504,0 0.854,0.294 0.35,0.294 0.504,0.798 h 0.014 q 0.098,-0.504 0.434,-0.798 0.35,-0.294 0.882,-0.294 0.742,0 1.176,0.56 0.448,0.546 0.448,1.428 V 65 h -1.176 v -5.866 q 0,-0.462 -0.224,-0.728 -0.224,-0.28 -0.616,-0.28 -0.378,0 -0.602,0.266 -0.224,0.266 -0.224,0.728 V 65 h -1.036 v -5.866 q 0,-0.462 -0.224,-0.728 -0.224,-0.28 -0.602,-0.28 -0.392,0 -0.616,0.266 -0.224,0.266 -0.224,0.728 V 65 Z m 11.12001,-4.06 v -1.12 h 4.48 v 1.12 z m 9.608,4.06 v -7.7 h 1.26 v 1.47 h 0.028 q 0.098,-0.742 0.63,-1.176 0.532,-0.434 1.428,-0.434 1.204,0 1.848,0.728 0.658,0.714 0.658,2.044 v 0.658 h -1.26 v -0.658 q 0,-1.68 -1.638,-1.68 -0.826,0 -1.26,0.476 -0.434,0.476 -0.434,1.372 V 65 Z m 12.32401,0.112 q -1.288,0 -2.002,-0.574 -0.7,-0.588 -0.7,-1.652 h 1.26 q 0,0.532 0.378,0.84 0.378,0.294 1.064,0.294 h 0.616 q 0.7,0 1.078,-0.308 0.392,-0.308 0.392,-0.868 0,-0.994 -0.91,-1.12 l -2.128,-0.308 q -0.784,-0.112 -1.218,-0.644 -0.434,-0.546 -0.434,-1.428 0,-1.008 0.686,-1.582 0.7,-0.574 1.918,-0.574 h 0.616 q 1.12,0 1.82,0.56 0.714,0.546 0.77,1.442 h -1.274 q -0.028,-0.406 -0.392,-0.672 -0.35,-0.266 -0.924,-0.266 h -0.616 q -0.644,0 -1.008,0.294 -0.364,0.294 -0.364,0.798 0,0.812 0.742,0.924 l 1.988,0.28 q 1.96,0.28 1.96,2.296 0,1.078 -0.714,1.68 -0.7,0.588 -1.988,0.588 z m 17.15801,1.428 4.97,-13.16 h 1.33 l -4.97,13.16 z M 263.28805,65 V 54.78 h 1.26 v 3.99 h 0.014 q 0.098,-0.77 0.63,-1.19 0.532,-0.42 1.414,-0.42 1.162,0 1.848,0.714 0.686,0.714 0.686,1.946 V 65 h -1.26 v -4.97 q 0,-0.868 -0.448,-1.33 -0.434,-0.476 -1.19,-0.476 -0.784,0 -1.246,0.49 -0.448,0.49 -0.448,1.386 V 65 Z m 12.912,0.14 q -1.358,0 -2.198,-0.812 -0.826,-0.826 -0.826,-2.268 v -1.82 q 0,-1.442 0.826,-2.254 0.84,-0.826 2.198,-0.826 0.91,0 1.582,0.364 0.686,0.364 1.064,1.022 0.378,0.658 0.378,1.554 v 1.372 h -4.816 V 62.2 q 0,0.854 0.49,1.358 0.49,0.49 1.302,0.49 0.7,0 1.148,-0.266 0.462,-0.28 0.56,-0.742 h 1.26 q -0.126,0.966 -0.938,1.54 -0.812,0.56 -2.03,0.56 z m -1.792,-4.648 h 3.584 V 60.1 q 0,-0.91 -0.476,-1.4 -0.462,-0.504 -1.316,-0.504 -0.854,0 -1.33,0.504 -0.462,0.49 -0.462,1.4 z M 287.32006,65 q -1.022,0 -1.638,-0.588 -0.602,-0.602 -0.602,-1.582 v -6.902 h -2.66 V 54.78 h 3.92 v 8.05 q 0,0.476 0.266,0.756 0.266,0.266 0.714,0.266 h 2.38 V 65 Z m 5.87,0 v -1.148 h 2.73 v -5.404 h -2.45 V 57.3 h 3.71 v 6.552 h 2.59 V 65 Z m 3.22,-9.086 q -0.462,0 -0.728,-0.238 -0.266,-0.238 -0.266,-0.644 0,-0.42 0.266,-0.658 0.266,-0.252 0.728,-0.252 0.462,0 0.728,0.252 0.266,0.238 0.266,0.658 0,0.406 -0.266,0.644 -0.266,0.238 -0.728,0.238 z m 9.79002,9.198 q -1.386,0 -2.212,-0.812 -0.812,-0.812 -0.812,-2.268 v -1.764 q 0,-1.47 0.812,-2.268 0.812,-0.812 2.212,-0.812 1.4,0 2.212,0.812 0.812,0.798 0.812,2.268 v 1.764 q 0,1.456 -0.826,2.268 -0.812,0.812 -2.198,0.812 z m 0,-1.12 q 0.826,0 1.288,-0.462 0.476,-0.462 0.476,-1.358 v -2.044 q 0,-0.896 -0.476,-1.358 -0.462,-0.462 -1.288,-0.462 -0.812,0 -1.288,0.462 -0.476,0.462 -0.476,1.358 v 2.044 q 0,0.896 0.476,1.358 0.476,0.462 1.288,0.462 z m 9.692,1.12 q -1.288,0 -2.002,-0.574 -0.7,-0.588 -0.7,-1.652 h 1.26 q 0,0.532 0.378,0.84 0.378,0.294 1.064,0.294 h 0.616 q 0.7,0 1.078,-0.308 0.392,-0.308 0.392,-0.868 0,-0.994 -0.91,-1.12 l -2.128,-0.308 q -0.784,-0.112 -1.218,-0.644 -0.434,-0.546 -0.434,-1.428 0,-1.008 0.686,-1.582 0.7,-0.574 1.918,-0.574 h 0.616 q 1.12,0 1.82,0.56 0.714,0.546 0.77,1.442 h -1.274 q -0.028,-0.406 -0.392,-0.672 -0.35,-0.266 -0.924,-0.266 h -0.616 q -0.644,0 -1.008,0.294 -0.364,0.294 -0.364,0.798 0,0.812 0.742,0.924 l 1.988,0.28 q 1.96,0.28 1.96,2.296 0,1.078 -0.714,1.68 -0.7,0.588 -1.988,0.588 z"
     id="text5"
     style="font-size:14px;letter-spacing:1.6;fill:#a8d68a"
     aria-label="nxm-rs / helios" />
  <path
     d="m 77.9,141.35 q -1.144,0 -2.067,-0.52 -0.91,-0.533 -1.443,-1.443 -0.52,-0.923 -0.52,-2.067 0,-1.157 0.52,-2.067 0.533,-0.91 1.443,-1.43 0.923,-0.533 2.067,-0.533 1.157,0 2.067,0.533 0.91,0.52 1.43,1.43 0.533,0.91 0.533,2.067 0,1.144 -0.533,2.067 -0.52,0.91 -1.43,1.443 -0.91,0.52 -2.067,0.52 z m 0,-0.65 q 0.962,0 1.729,-0.442 0.767,-0.442 1.209,-1.209 0.442,-0.767 0.442,-1.729 0,-0.962 -0.442,-1.729 -0.442,-0.767 -1.209,-1.209 -0.767,-0.442 -1.729,-0.442 -0.962,0 -1.729,0.442 -0.767,0.442 -1.209,1.209 -0.442,0.767 -0.442,1.729 0,0.962 0.442,1.729 0.442,0.767 1.209,1.209 0.767,0.442 1.729,0.442 z m 0,-0.819 q -0.715,0 -1.3,-0.338 -0.572,-0.351 -0.923,-0.923 -0.338,-0.585 -0.338,-1.3 0,-0.715 0.338,-1.287 0.351,-0.585 0.923,-0.923 0.585,-0.351 1.3,-0.351 0.741,0 1.313,0.338 0.585,0.325 0.91,0.91 0.338,0.572 0.338,1.313 0,0.715 -0.351,1.3 -0.338,0.572 -0.923,0.923 -0.572,0.338 -1.287,0.338 z M 95.765009,142 v -1.066 h 1.937 v -7.358 h -1.937 v -1.066 h 5.070001 v 1.066 h -1.937001 v 7.358 h 1.937001 V 142 Z m 10.005011,0 v -9.49 h 1.56 l 2.899,8.125 q -0.026,-0.325 -0.065,-0.793 -0.026,-0.481 -0.052,-1.001 -0.013,-0.533 -0.013,-1.001 v -5.33 h 1.131 V 142 h -1.56 l -2.886,-8.125 q 0.026,0.312 0.052,0.793 0.026,0.468 0.039,1.001 0.026,0.52 0.026,1.001 V 142 Z m 10.85,-3.77 v -1.04 h 4.16 v 1.04 z m 9.57601,3.77 v -9.49 h 3.055 q 1.326,0 2.106,0.767 0.793,0.754 0.793,2.028 0,1.274 -0.793,2.041 -0.78,0.754 -2.106,0.754 h -1.885 v 3.9 z m 1.17,-4.953 h 1.885 q 0.767,0 1.222,-0.468 0.468,-0.481 0.468,-1.274 0,-0.806 -0.468,-1.274 -0.455,-0.468 -1.222,-0.468 h -1.885 z m 9.043,4.953 v -9.49 h 2.925 q 0.845,0 1.482,0.351 0.637,0.338 0.988,0.949 0.351,0.611 0.351,1.43 0,0.962 -0.494,1.651 -0.494,0.689 -1.313,0.962 l 1.937,4.147 h -1.287 l -1.859,-4.03 h -1.573 V 142 Z m 1.157,-5.083 h 1.768 q 0.728,0 1.17,-0.455 0.442,-0.468 0.442,-1.222 0,-0.767 -0.442,-1.222 -0.442,-0.455 -1.17,-0.455 h -1.768 z m 11.734,5.213 q -1.274,0 -2.015,-0.741 -0.741,-0.741 -0.741,-2.119 v -4.03 q 0,-1.378 0.741,-2.119 0.741,-0.741 2.015,-0.741 1.274,0 2.015,0.741 0.741,0.741 0.741,2.106 v 4.043 q 0,1.378 -0.741,2.119 -0.741,0.741 -2.015,0.741 z m 0,-1.053 q 0.767,0 1.17,-0.429 0.416,-0.442 0.416,-1.248 v -4.29 q 0,-0.806 -0.416,-1.235 -0.403,-0.442 -1.17,-0.442 -0.754,0 -1.17,0.442 -0.416,0.429 -0.416,1.235 v 4.29 q 0,0.806 0.416,1.248 0.416,0.429 1.17,0.429 z m 10.30401,1.053 q -1.3,0 -2.054,-0.728 -0.754,-0.728 -0.754,-2.002 v -4.29 q 0,-1.274 0.754,-2.002 0.754,-0.728 2.054,-0.728 1.274,0 2.028,0.741 0.754,0.728 0.754,1.989 h -1.17 q 0,-0.806 -0.429,-1.235 -0.416,-0.442 -1.183,-0.442 -0.767,0 -1.209,0.442 -0.429,0.429 -0.429,1.235 v 4.29 q 0,0.806 0.429,1.248 0.442,0.429 1.209,0.429 0.767,0 1.183,-0.429 0.429,-0.442 0.429,-1.248 h 1.17 q 0,1.261 -0.754,2.002 -0.754,0.728 -2.028,0.728 z m 7.49601,-0.13 v -9.49 h 5.46 v 1.066 h -4.303 v 2.938 h 3.848 v 1.04 h -3.848 v 3.38 h 4.303 V 142 Z m 12.852,0.13 q -1.378,0 -2.197,-0.728 -0.819,-0.728 -0.819,-2.002 h 1.17 q 0,0.793 0.507,1.248 0.507,0.442 1.339,0.442 0.806,0 1.287,-0.468 0.481,-0.468 0.481,-1.222 0,-0.572 -0.312,-0.988 -0.299,-0.429 -0.871,-0.585 l -1.443,-0.403 q -0.897,-0.26 -1.417,-0.923 -0.507,-0.676 -0.507,-1.586 0,-0.754 0.338,-1.326 0.338,-0.572 0.949,-0.884 0.611,-0.325 1.404,-0.325 0.806,0 1.417,0.325 0.624,0.312 0.975,0.884 0.351,0.559 0.351,1.3 h -1.17 q 0,-0.65 -0.442,-1.053 -0.442,-0.416 -1.131,-0.416 -0.689,0 -1.118,0.416 -0.429,0.403 -0.429,1.053 0,0.52 0.273,0.897 0.286,0.364 0.793,0.507 l 1.482,0.416 q 0.949,0.26 1.469,0.988 0.533,0.715 0.533,1.703 0,1.248 -0.793,1.989 -0.793,0.741 -2.119,0.741 z m 10.20001,0 q -1.378,0 -2.197,-0.728 -0.819,-0.728 -0.819,-2.002 h 1.17 q 0,0.793 0.507,1.248 0.507,0.442 1.339,0.442 0.806,0 1.287,-0.468 0.481,-0.468 0.481,-1.222 0,-0.572 -0.312,-0.988 -0.299,-0.429 -0.871,-0.585 l -1.443,-0.403 q -0.897,-0.26 -1.417,-0.923 -0.507,-0.676 -0.507,-1.586 0,-0.754 0.338,-1.326 0.338,-0.572 0.949,-0.884 0.611,-0.325 1.404,-0.325 0.806,0 1.417,0.325 0.624,0.312 0.975,0.884 0.351,0.559 0.351,1.3 h -1.17 q 0,-0.65 -0.442,-1.053 -0.442,-0.416 -1.131,-0.416 -0.689,0 -1.118,0.416 -0.429,0.403 -0.429,1.053 0,0.52 0.273,0.897 0.286,0.364 0.793,0.507 l 1.482,0.416 q 0.949,0.26 1.469,0.988 0.533,0.715 0.533,1.703 0,1.248 -0.793,1.989 -0.793,0.741 -2.119,0.741 z M 208.29007,142 v -9.49 h 1.17 v 8.424 h 4.29 V 142 Z m 9.87499,0 v -1.066 h 1.937 v -7.358 h -1.937 v -1.066 h 5.07 v 1.066 h -1.937 v 7.358 h 1.937 V 142 Z m 12.78702,0.13 q -1.3,0 -2.054,-0.728 -0.754,-0.728 -0.754,-2.002 v -4.29 q 0,-1.274 0.754,-2.002 0.754,-0.728 2.054,-0.728 1.274,0 2.028,0.741 0.754,0.728 0.754,1.989 h -1.17 q 0,-0.806 -0.429,-1.235 -0.416,-0.442 -1.183,-0.442 -0.767,0 -1.209,0.429 -0.429,0.429 -0.429,1.235 v 4.303 q 0,0.806 0.429,1.248 0.442,0.442 1.209,0.442 0.767,0 1.183,-0.442 0.429,-0.442 0.429,-1.248 v -1.3 h -1.924 v -1.066 h 3.094 v 2.366 q 0,1.261 -0.754,2.002 -0.754,0.728 -2.028,0.728 z m 7.45699,-0.13 v -9.49 h 1.17 v 4.056 h 3.042 v -4.056 h 1.17 V 142 h -1.17 v -4.368 h -3.042 V 142 Z m 12.30602,0 v -8.424 h -2.6 v -1.066 h 6.37 v 1.066 h -2.6 V 142 Z m 21.089,0.13 q -1.3,0 -2.054,-0.728 -0.754,-0.728 -0.754,-2.002 v -4.29 q 0,-1.274 0.754,-2.002 0.754,-0.728 2.054,-0.728 1.274,0 2.028,0.741 0.754,0.728 0.754,1.989 h -1.17 q 0,-0.806 -0.429,-1.235 -0.416,-0.442 -1.183,-0.442 -0.767,0 -1.209,0.442 -0.429,0.429 -0.429,1.235 v 4.29 q 0,0.806 0.429,1.248 0.442,0.429 1.209,0.429 0.767,0 1.183,-0.429 0.429,-0.442 0.429,-1.248 h 1.17 q 0,1.261 -0.754,2.002 -0.754,0.728 -2.028,0.728 z m 7.88602,-0.13 v -9.49 h 1.17 v 8.424 h 4.29 V 142 Z m 9.87499,0 v -1.066 h 1.937 v -7.358 h -1.937 v -1.066 h 5.07 v 1.066 h -1.937 v 7.358 h 1.937 V 142 Z m 10.13502,0 v -9.49 h 5.46 v 1.066 h -4.303 v 2.938 h 3.848 v 1.04 h -3.848 v 3.38 h 4.303 V 142 Z m 10.06999,0 v -9.49 h 1.56 l 2.899,8.125 q -0.026,-0.325 -0.065,-0.793 -0.026,-0.481 -0.052,-1.001 -0.013,-0.533 -0.013,-1.001 v -5.33 h 1.131 V 142 h -1.56 l -2.886,-8.125 q 0.026,0.312 0.052,0.793 0.026,0.468 0.039,1.001 0.026,0.52 0.026,1.001 V 142 Z m 12.34502,0 v -8.424 h -2.6 v -1.066 h 6.37 v 1.066 h -2.6 V 142 Z m 20.985,-3.38 q -0.481,0 -0.78,-0.286 -0.286,-0.286 -0.286,-0.741 0,-0.481 0.286,-0.78 0.299,-0.299 0.78,-0.299 0.481,0 0.767,0.299 0.299,0.299 0.299,0.78 0,0.455 -0.299,0.741 -0.286,0.286 -0.767,0.286 z m 17.735,3.38 v -9.49 h 5.59 v 1.066 h -4.446 v 3.146 h 4.108 v 1.066 h -4.082 V 142 Z m 12.86501,0.13 q -1.274,0 -2.015,-0.741 -0.741,-0.741 -0.741,-2.119 v -4.03 q 0,-1.378 0.741,-2.119 0.741,-0.741 2.015,-0.741 1.274,0 2.015,0.741 0.741,0.741 0.741,2.106 v 4.043 q 0,1.378 -0.741,2.119 -0.741,0.741 -2.015,0.741 z m 0,-1.053 q 0.767,0 1.17,-0.429 0.416,-0.442 0.416,-1.248 v -4.29 q 0,-0.806 -0.416,-1.235 -0.403,-0.442 -1.17,-0.442 -0.754,0 -1.17,0.442 -0.416,0.429 -0.416,1.235 v 4.29 q 0,0.806 0.416,1.248 0.416,0.429 1.17,0.429 z m 7.50901,0.923 v -9.49 h 2.925 q 0.845,0 1.482,0.351 0.637,0.338 0.988,0.949 0.351,0.611 0.351,1.43 0,0.962 -0.494,1.651 -0.494,0.689 -1.313,0.962 l 1.937,4.147 h -1.287 l -1.859,-4.03 h -1.573 V 142 Z m 1.157,-5.083 h 1.768 q 0.728,0 1.17,-0.455 0.442,-0.468 0.442,-1.222 0,-0.767 -0.442,-1.222 -0.442,-0.455 -1.17,-0.455 h -1.768 z m 9.03001,5.083 v -9.49 h 1.17 v 4.082 h 1.404 l 2.106,-4.082 h 1.274 l -2.353,4.576 2.483,4.914 h -1.339 l -2.21,-4.381 h -1.365 V 142 Z m 23.104,0.13 q -1.274,0 -2.015,-0.741 -0.741,-0.741 -0.741,-2.119 v -4.03 q 0,-1.378 0.741,-2.119 0.741,-0.741 2.015,-0.741 1.274,0 2.015,0.741 0.741,0.741 0.741,2.106 v 4.043 q 0,1.378 -0.741,2.119 -0.741,0.741 -2.015,0.741 z m 0,-1.053 q 0.767,0 1.17,-0.429 0.416,-0.442 0.416,-1.248 v -4.29 q 0,-0.806 -0.416,-1.235 -0.403,-0.442 -1.17,-0.442 -0.754,0 -1.17,0.442 -0.416,0.429 -0.416,1.235 v 4.29 q 0,0.806 0.416,1.248 0.416,0.429 1.17,0.429 z m 7.53501,0.923 v -9.49 h 5.59 v 1.066 h -4.446 v 3.146 h 4.108 v 1.066 h -4.082 V 142 Z m 22.44103,0.13 q -1.105,0 -1.755,-0.611 -0.65,-0.624 -0.65,-1.625 0,-0.663 0.299,-1.157 0.299,-0.494 0.832,-0.767 0.533,-0.286 1.222,-0.286 h 2.21 v -0.559 q 0,-1.391 -1.521,-1.391 -0.676,0 -1.092,0.247 -0.416,0.247 -0.442,0.689 h -1.17 q 0.065,-0.845 0.78,-1.391 0.728,-0.559 1.924,-0.559 1.3,0 1.989,0.624 0.702,0.624 0.702,1.742 V 142 h -1.157 v -1.3 h -0.026 q -0.104,0.663 -0.663,1.053 -0.559,0.377 -1.482,0.377 z m 0.286,-0.988 q 0.858,0 1.365,-0.416 0.507,-0.416 0.507,-1.131 v -1.001 h -2.08 q -0.572,0 -0.936,0.351 -0.351,0.338 -0.351,0.91 0,0.598 0.39,0.949 0.403,0.338 1.105,0.338 z m 7.80798,0.858 v -1.066 h 2.574 v -7.41 l -2.574,1.924 v -1.339 l 2.145,-1.599 h 1.599 v 8.424 h 2.106 V 142 Z m 12.94301,0.13 q -0.91,0 -1.612,-0.377 -0.689,-0.39 -1.079,-1.066 -0.39,-0.689 -0.39,-1.586 0,-0.624 0.234,-1.274 0.234,-0.663 0.637,-1.378 l 2.197,-3.939 h 1.3 l -2.34,4.069 0.039,0.026 q 0.169,-0.221 0.507,-0.338 0.338,-0.117 0.741,-0.117 0.845,0 1.469,0.377 0.637,0.364 0.988,1.014 0.364,0.65 0.364,1.508 0,0.91 -0.39,1.612 -0.39,0.689 -1.079,1.079 -0.676,0.39 -1.586,0.39 z m -0.013,-1.04 q 0.845,0 1.365,-0.559 0.533,-0.559 0.533,-1.456 0,-0.897 -0.533,-1.456 -0.52,-0.559 -1.365,-0.559 -0.845,0 -1.378,0.559 -0.52,0.559 -0.52,1.456 0,0.897 0.52,1.456 0.533,0.559 1.378,0.559 z m 7.47001,0.91 v -1.17 l 4.004,-4.914 h -3.9 v -1.066 h 5.213 v 1.17 l -4.082,4.914 h 4.225 V 142 Z m 10.00501,1.43 4.615,-12.22 h 1.235 l -4.615,12.22 z M 493.3962,142 v -9.49 h 1.17 v 3.705 h 0.013 q 0.091,-0.715 0.585,-1.105 0.494,-0.39 1.313,-0.39 1.079,0 1.716,0.663 0.637,0.663 0.637,1.807 V 142 h -1.17 v -4.615 q 0,-0.806 -0.416,-1.235 -0.403,-0.442 -1.105,-0.442 -0.728,0 -1.157,0.455 -0.416,0.455 -0.416,1.287 V 142 Z m 12.90401,0.13 q -1.261,0 -2.041,-0.754 -0.767,-0.767 -0.767,-2.106 v -1.69 q 0,-1.339 0.767,-2.093 0.78,-0.767 2.041,-0.767 0.845,0 1.469,0.338 0.637,0.338 0.988,0.949 0.351,0.611 0.351,1.443 v 1.274 h -4.472 v 0.676 q 0,0.793 0.455,1.261 0.455,0.455 1.209,0.455 0.65,0 1.066,-0.247 0.429,-0.26 0.52,-0.689 h 1.17 q -0.117,0.897 -0.871,1.43 -0.754,0.52 -1.885,0.52 z m -1.664,-4.316 h 3.328 v -0.364 q 0,-0.845 -0.442,-1.3 -0.429,-0.468 -1.222,-0.468 -0.793,0 -1.235,0.468 -0.429,0.455 -0.429,1.3 z M 517.54022,142 q -0.949,0 -1.521,-0.546 -0.559,-0.559 -0.559,-1.469 v -6.409 h -2.47 v -1.066 h 3.64 v 7.475 q 0,0.442 0.247,0.702 0.247,0.247 0.663,0.247 h 2.21 V 142 Z m 6.36501,0 v -1.066 h 2.535 v -5.018 h -2.275 v -1.066 h 3.445 v 6.084 h 2.405 V 142 Z m 2.99,-8.437 q -0.429,0 -0.676,-0.221 -0.247,-0.221 -0.247,-0.598 0,-0.39 0.247,-0.611 0.247,-0.234 0.676,-0.234 0.429,0 0.676,0.234 0.247,0.221 0.247,0.611 0,0.377 -0.247,0.598 -0.247,0.221 -0.676,0.221 z m 10.00498,8.541 q -1.287,0 -2.054,-0.754 -0.754,-0.754 -0.754,-2.106 v -1.638 q 0,-1.365 0.754,-2.106 0.754,-0.754 2.054,-0.754 1.3,0 2.054,0.754 0.754,0.741 0.754,2.106 v 1.638 q 0,1.352 -0.767,2.106 -0.754,0.754 -2.041,0.754 z m 0,-1.04 q 0.767,0 1.196,-0.429 0.442,-0.429 0.442,-1.261 v -1.898 q 0,-0.832 -0.442,-1.261 -0.429,-0.429 -1.196,-0.429 -0.754,0 -1.196,0.429 -0.442,0.429 -0.442,1.261 v 1.898 q 0,0.832 0.442,1.261 0.442,0.429 1.196,0.429 z m 9.91402,1.04 q -1.196,0 -1.859,-0.533 -0.65,-0.546 -0.65,-1.534 h 1.17 q 0,0.494 0.351,0.78 0.351,0.273 0.988,0.273 h 0.572 q 0.65,0 1.001,-0.286 0.364,-0.286 0.364,-0.806 0,-0.923 -0.845,-1.04 l -1.976,-0.286 q -0.728,-0.104 -1.131,-0.598 -0.403,-0.507 -0.403,-1.326 0,-0.936 0.637,-1.469 0.65,-0.533 1.781,-0.533 h 0.572 q 1.04,0 1.69,0.52 0.663,0.507 0.715,1.339 h -1.183 q -0.026,-0.377 -0.364,-0.624 -0.325,-0.247 -0.858,-0.247 h -0.572 q -0.598,0 -0.936,0.273 -0.338,0.273 -0.338,0.741 0,0.754 0.689,0.858 l 1.846,0.26 q 1.82,0.26 1.82,2.132 0,1.001 -0.663,1.56 -0.65,0.546 -1.846,0.546 z"
     id="text6"
     style="font-size:13px;letter-spacing:2.4;fill:#a8d68a"
     aria-label="◉ IN-PROCESS LIGHT CLIENT · FORK OF a16z/helios" />
  <path
     d="m 88.784,200.48 q -4.848,0 -7.728,-2.688 -2.832,-2.736 -2.832,-7.488 v -15.696 q 0,-4.704 2.832,-7.392 2.88,-2.736 7.728,-2.736 4.8,0 7.632,2.736 2.88,2.736 2.88,7.392 h -4.752 q 0,-2.832 -1.536,-4.368 -1.536,-1.536 -4.224,-1.536 -2.736,0 -4.272,1.536 -1.536,1.536 -1.536,4.368 v 15.696 q 0,2.88 1.536,4.416 1.536,1.536 4.272,1.536 2.688,0 4.224,-1.536 1.536,-1.536 1.536,-4.416 h 4.752 q 0,4.704 -2.88,7.44 -2.832,2.736 -7.632,2.736 z m 27.01602,-0.096 q -4.848,0 -7.728,-2.784 -2.832,-2.784 -2.832,-7.776 v -6.048 q 0,-4.992 2.832,-7.776 2.88,-2.784 7.728,-2.784 4.848,0 7.68,2.784 2.88,2.784 2.88,7.776 v 6.048 q 0,4.992 -2.88,7.776 -2.832,2.784 -7.68,2.784 z m 0,-4.176 q 2.688,0 4.224,-1.488 1.584,-1.536 1.584,-4.464 v -6.912 q 0,-2.928 -1.584,-4.416 -1.536,-1.536 -4.224,-1.536 -2.688,0 -4.272,1.536 -1.536,1.488 -1.536,4.416 v 6.912 q 0,2.928 1.536,4.464 1.584,1.488 4.272,1.488 z M 133.02404,200 v -26.4 h 4.704 v 5.04 h 0.048 q 0.336,-2.592 2.16,-4.032 1.872,-1.488 4.896,-1.488 3.936,0 6.288,2.496 2.352,2.496 2.352,6.72 V 200 h -4.752 v -16.896 q 0,-2.88 -1.44,-4.416 -1.44,-1.536 -3.936,-1.536 -2.592,0 -4.08,1.632 -1.488,1.584 -1.488,4.464 V 200 Z m 36.52002,0.384 q -4.512,0 -7.008,-2.016 -2.496,-2.016 -2.496,-5.664 h 4.704 q 0,1.728 1.248,2.736 1.296,0.96 3.552,0.96 h 2.112 q 2.352,0 3.6,-1.008 1.296,-1.008 1.296,-2.832 0,-3.216 -3.168,-3.6 l -7.104,-1.008 q -2.832,-0.432 -4.368,-2.304 -1.536,-1.92 -1.536,-4.944 0,-3.552 2.4,-5.52 2.4,-1.968 6.72,-1.968 h 2.112 q 4.032,0 6.528,1.92 2.496,1.92 2.64,5.088 h -4.8 q -0.096,-1.344 -1.248,-2.208 -1.152,-0.912 -3.12,-0.912 h -2.112 q -2.16,0 -3.36,0.96 -1.152,0.96 -1.152,2.592 0,2.64 2.64,2.976 l 6.672,0.96 q 6.864,0.912 6.864,7.968 0,3.744 -2.496,5.808 -2.448,2.016 -7.008,2.016 z m 28.45601,0.096 q -4.752,0 -7.68,-2.832 -2.88,-2.832 -2.88,-7.728 v -6.24 q 0,-4.896 2.88,-7.728 2.928,-2.832 7.68,-2.832 3.168,0 5.52,1.296 2.4,1.248 3.696,3.552 1.344,2.256 1.344,5.28 V 188 h -16.464 v 2.304 q 0,2.88 1.584,4.512 1.584,1.632 4.32,1.632 2.304,0 3.792,-0.864 1.488,-0.864 1.776,-2.4 h 4.752 q -0.48,3.36 -3.312,5.328 -2.832,1.968 -7.008,1.968 z m -5.904,-17.232 v 1.248 h 11.808 v -1.248 q 0,-3.024 -1.536,-4.656 -1.536,-1.632 -4.368,-1.632 -2.832,0 -4.368,1.632 -1.536,1.632 -1.536,4.656 z M 215.22409,200 v -26.4 h 4.704 v 5.04 h 0.048 q 0.336,-2.592 2.16,-4.032 1.872,-1.488 4.896,-1.488 3.936,0 6.288,2.496 2.352,2.496 2.352,6.72 V 200 h -4.752 v -16.896 q 0,-2.88 -1.44,-4.416 -1.44,-1.536 -3.936,-1.536 -2.592,0 -4.08,1.632 -1.488,1.584 -1.488,4.464 V 200 Z m 36.52003,0.384 q -4.512,0 -7.008,-2.016 -2.496,-2.016 -2.496,-5.664 h 4.704 q 0,1.728 1.248,2.736 1.296,0.96 3.552,0.96 h 2.112 q 2.352,0 3.6,-1.008 1.296,-1.008 1.296,-2.832 0,-3.216 -3.168,-3.6 l -7.104,-1.008 q -2.832,-0.432 -4.368,-2.304 -1.536,-1.92 -1.536,-4.944 0,-3.552 2.4,-5.52 2.4,-1.968 6.72,-1.968 h 2.112 q 4.032,0 6.528,1.92 2.496,1.92 2.64,5.088 h -4.8 q -0.096,-1.344 -1.248,-2.208 -1.152,-0.912 -3.12,-0.912 h -2.112 q -2.16,0 -3.36,0.96 -1.152,0.96 -1.152,2.592 0,2.64 2.64,2.976 l 6.672,0.96 q 6.864,0.912 6.864,7.968 0,3.744 -2.496,5.808 -2.448,2.016 -7.008,2.016 z m 28.40801,0.096 q -4.656,0 -7.44,-2.736 -2.784,-2.736 -2.784,-7.44 V 173.6 h 4.752 v 16.704 q 0,2.784 1.44,4.416 1.488,1.584 4.032,1.584 2.592,0 4.08,-1.584 1.488,-1.632 1.488,-4.416 V 173.6 h 4.752 v 16.704 q 0,4.704 -2.832,7.44 -2.784,2.736 -7.488,2.736 z m 26.39202,-0.096 q -4.512,0 -7.008,-2.016 -2.496,-2.016 -2.496,-5.664 h 4.704 q 0,1.728 1.248,2.736 1.296,0.96 3.552,0.96 h 2.112 q 2.352,0 3.6,-1.008 1.296,-1.008 1.296,-2.832 0,-3.216 -3.168,-3.6 l -7.104,-1.008 q -2.832,-0.432 -4.368,-2.304 -1.536,-1.92 -1.536,-4.944 0,-3.552 2.4,-5.52 2.4,-1.968 6.72,-1.968 h 2.112 q 4.032,0 6.528,1.92 2.496,1.92 2.64,5.088 h -4.8 q -0.096,-1.344 -1.248,-2.208 -1.152,-0.912 -3.12,-0.912 h -2.112 q -2.16,0 -3.36,0.96 -1.152,0.96 -1.152,2.592 0,2.64 2.64,2.976 l 6.672,0.96 q 6.864,0.912 6.864,7.968 0,3.744 -2.496,5.808 -2.448,2.016 -7.008,2.016 z m 20.77601,-14.112 V 182 h 15.36 v 4.272 z m 32.00802,13.728 -8.928,-26.4 h 5.04 l 5.616,17.328 q 0.48,1.536 0.864,3.024 0.384,1.44 0.576,2.304 0.192,-0.864 0.528,-2.304 0.336,-1.488 0.816,-3.024 l 5.568,-17.328 h 5.04 l -8.976,26.4 z m 30.47203,0.48 q -4.752,0 -7.68,-2.832 -2.88,-2.832 -2.88,-7.728 v -6.24 q 0,-4.896 2.88,-7.728 2.928,-2.832 7.68,-2.832 3.168,0 5.52,1.296 2.4,1.248 3.696,3.552 1.344,2.256 1.344,5.28 V 188 h -16.464 v 2.304 q 0,2.88 1.584,4.512 1.584,1.632 4.32,1.632 2.304,0 3.792,-0.864 1.488,-0.864 1.776,-2.4 h 4.752 q -0.48,3.36 -3.312,5.328 -2.832,1.968 -7.008,1.968 z m -5.904,-17.232 v 1.248 h 11.808 v -1.248 q 0,-3.024 -1.536,-4.656 -1.536,-1.632 -4.368,-1.632 -2.832,0 -4.368,1.632 -1.536,1.632 -1.536,4.656 z M 407.98423,200 v -26.4 h 4.704 v 5.088 h 0.048 q 0.384,-2.592 2.208,-4.08 1.872,-1.488 4.944,-1.488 4.08,0 6.336,2.544 2.256,2.496 2.256,7.056 v 2.304 h -4.752 v -2.256 q 0,-5.52 -5.424,-5.52 -2.736,0 -4.176,1.584 -1.392,1.584 -1.392,4.512 V 200 Z m 26.2,0 v -4.32 h 9.264 v -17.76 h -8.304 v -4.32 h 13.056 v 22.08 h 8.688 V 200 Z m 11.184,-31.056 q -1.632,0 -2.592,-0.816 -0.96,-0.864 -0.96,-2.304 0,-1.488 0.96,-2.352 0.96,-0.864 2.592,-0.864 1.632,0 2.592,0.864 0.96,0.864 0.96,2.352 0,1.44 -0.96,2.304 -0.96,0.816 -2.592,0.816 z M 467.72825,200 v -18.48 h -7.584 v -4.32 h 7.584 v -5.328 q 0,-3.168 2.064,-5.04 2.064,-1.872 5.616,-1.872 h 7.728 v 4.272 h -7.728 q -2.928,0 -2.928,2.688 v 5.28 h 10.656 v 4.32 h -10.656 V 200 Z m 21.25602,0 v -4.32 h 9.264 v -17.76 h -8.304 v -4.32 h 13.056 v 22.08 h 8.688 V 200 Z m 11.184,-31.056 q -1.632,0 -2.592,-0.816 -0.96,-0.864 -0.96,-2.304 0,-1.488 0.96,-2.352 0.96,-0.864 2.592,-0.864 1.632,0 2.592,0.864 0.96,0.864 0.96,2.352 0,1.44 -0.96,2.304 -0.96,0.816 -2.592,0.816 z m 26.63203,31.536 q -4.752,0 -7.68,-2.832 -2.88,-2.832 -2.88,-7.728 v -6.24 q 0,-4.896 2.88,-7.728 2.928,-2.832 7.68,-2.832 3.168,0 5.52,1.296 2.4,1.248 3.696,3.552 1.344,2.256 1.344,5.28 V 188 h -16.464 v 2.304 q 0,2.88 1.584,4.512 1.584,1.632 4.32,1.632 2.304,0 3.792,-0.864 1.488,-0.864 1.776,-2.4 h 4.752 q -0.48,3.36 -3.312,5.328 -2.832,1.968 -7.008,1.968 z m -5.904,-17.232 v 1.248 h 11.808 v -1.248 q 0,-3.024 -1.536,-4.656 -1.536,-1.632 -4.368,-1.632 -2.832,0 -4.368,1.632 -1.536,1.632 -1.536,4.656 z m 31.57602,17.232 q -3.984,0 -6.336,-2.64 -2.352,-2.688 -2.352,-7.248 v -7.584 q 0,-4.56 2.352,-7.2 2.352,-2.688 6.336,-2.688 2.928,0 4.848,1.488 1.968,1.488 2.4,4.08 v 0 l -0.096,-6.144 v -7.584 h 4.752 V 200 h -4.704 v -5.136 0 q -0.432,2.64 -2.352,4.128 -1.92,1.488 -4.848,1.488 z m 1.632,-4.128 q 2.544,0 4.032,-1.584 1.488,-1.584 1.488,-4.464 v -7.008 q 0,-2.88 -1.488,-4.464 -1.488,-1.584 -4.032,-1.584 -2.64,0 -4.128,1.392 -1.44,1.344 -1.44,4.416 v 7.488 q 0,3.072 1.44,4.464 1.488,1.344 4.128,1.344 z M 598.87234,200 v -35.04 h 10.848 q 3.216,0 5.616,1.296 2.4,1.248 3.744,3.552 1.344,2.256 1.344,5.328 0,3.552 -1.824,6.096 -1.776,2.544 -4.752,3.6 l 7.056,15.168 h -5.232 l -6.672,-14.64 h -5.424 V 200 Z m 4.704,-18.864 h 6.144 q 2.688,0 4.224,-1.632 1.584,-1.632 1.584,-4.32 0,-2.736 -1.584,-4.368 -1.584,-1.632 -4.224,-1.632 h -6.144 z M 626.22437,200 v -35.04 h 11.376 q 3.36,0 5.808,1.296 2.448,1.296 3.792,3.648 1.344,2.304 1.344,5.52 0,3.168 -1.344,5.52 -1.344,2.304 -3.84,3.6 -2.448,1.296 -5.76,1.296 h -6.624 V 200 Z m 4.752,-18.384 h 6.624 q 2.784,0 4.416,-1.68 1.632,-1.728 1.632,-4.512 0,-2.832 -1.632,-4.512 -1.632,-1.728 -4.416,-1.728 h -6.624 z m 33.20802,18.864 q -4.848,0 -7.728,-2.688 -2.832,-2.736 -2.832,-7.488 v -15.696 q 0,-4.704 2.832,-7.392 2.88,-2.736 7.728,-2.736 4.8,0 7.632,2.736 2.88,2.736 2.88,7.392 h -4.752 q 0,-2.832 -1.536,-4.368 -1.536,-1.536 -4.224,-1.536 -2.736,0 -4.272,1.536 -1.536,1.536 -1.536,4.368 v 15.696 q 0,2.88 1.536,4.416 1.536,1.536 4.272,1.536 2.688,0 4.224,-1.536 1.536,-1.536 1.536,-4.416 h 4.752 q 0,4.704 -2.88,7.44 -2.832,2.736 -7.632,2.736 z m 27.01603,0 q -1.824,0 -2.976,-1.104 -1.104,-1.104 -1.104,-2.832 0,-1.824 1.104,-2.976 1.152,-1.152 2.976,-1.152 1.824,0 2.928,1.152 1.152,1.152 1.152,2.976 0,1.728 -1.152,2.832 -1.104,1.104 -2.928,1.104 z"
     id="text7"
     style="font-weight:500;font-size:48px;letter-spacing:-1.4;fill:#d6d6cf"
     aria-label="Consensus-verified RPC." />
  <path
     d="M 86.048,246 V 232.992 L 75.536,210.96 h 5.04 l 6.48,13.824 q 0.576,1.248 0.912,2.256 0.384,1.008 0.48,1.44 0.144,-0.432 0.48,-1.44 0.384,-1.008 1.008,-2.256 l 6.432,-13.824 h 4.896 L 90.8,232.992 V 246 Z m 29.75202,0.384 q -4.848,0 -7.728,-2.784 -2.832,-2.784 -2.832,-7.776 v -6.048 q 0,-4.992 2.832,-7.776 2.88,-2.784 7.728,-2.784 4.848,0 7.68,2.784 2.88,2.784 2.88,7.776 v 6.048 q 0,4.992 -2.88,7.776 -2.832,2.784 -7.68,2.784 z m 0,-4.176 q 2.688,0 4.224,-1.488 1.584,-1.536 1.584,-4.464 v -6.912 q 0,-2.928 -1.584,-4.416 -1.536,-1.536 -4.224,-1.536 -2.688,0 -4.272,1.536 -1.536,1.488 -1.536,4.416 v 6.912 q 0,2.928 1.536,4.464 1.584,1.488 4.272,1.488 z m 27.35202,4.272 q -4.656,0 -7.44,-2.736 -2.784,-2.736 -2.784,-7.44 V 219.6 h 4.752 v 16.704 q 0,2.784 1.44,4.416 1.488,1.584 4.032,1.584 2.592,0 4.08,-1.584 1.488,-1.632 1.488,-4.416 V 219.6 h 4.752 v 16.704 q 0,4.704 -2.832,7.44 -2.784,2.736 -7.488,2.736 z M 161.38406,246 v -26.4 h 4.704 v 5.088 h 0.048 q 0.384,-2.592 2.208,-4.08 1.872,-1.488 4.944,-1.488 4.08,0 6.336,2.544 2.256,2.496 2.256,7.056 v 2.304 h -4.752 v -2.256 q 0,-5.52 -5.424,-5.52 -2.736,0 -4.176,1.584 -1.392,1.584 -1.392,4.512 V 246 Z m 53.88803,0 v -35.04 h 10.848 q 3.216,0 5.616,1.296 2.4,1.248 3.744,3.552 1.344,2.256 1.344,5.328 0,3.552 -1.824,6.096 -1.776,2.544 -4.752,3.6 l 7.056,15.168 h -5.232 l -6.672,-14.64 h -5.424 V 246 Z m 4.704,-18.864 h 6.144 q 2.688,0 4.224,-1.632 1.584,-1.632 1.584,-4.32 0,-2.736 -1.584,-4.368 -1.584,-1.632 -4.224,-1.632 h -6.144 z M 242.62412,246 v -35.04 h 11.376 q 3.36,0 5.808,1.296 2.448,1.296 3.792,3.648 1.344,2.304 1.344,5.52 0,3.168 -1.344,5.52 -1.344,2.304 -3.84,3.6 -2.448,1.296 -5.76,1.296 h -6.624 V 246 Z m 4.752,-18.384 h 6.624 q 2.784,0 4.416,-1.68 1.632,-1.728 1.632,-4.512 0,-2.832 -1.632,-4.512 -1.632,-1.728 -4.416,-1.728 h -6.624 z m 33.20801,18.864 q -4.848,0 -7.728,-2.688 -2.832,-2.736 -2.832,-7.488 v -15.696 q 0,-4.704 2.832,-7.392 2.88,-2.736 7.728,-2.736 4.8,0 7.632,2.736 2.88,2.736 2.88,7.392 h -4.752 q 0,-2.832 -1.536,-4.368 -1.536,-1.536 -4.224,-1.536 -2.736,0 -4.272,1.536 -1.536,1.536 -1.536,4.368 v 15.696 q 0,2.88 1.536,4.416 1.536,1.536 4.272,1.536 2.688,0 4.224,-1.536 1.536,-1.536 1.536,-4.416 h 4.752 q 0,4.704 -2.88,7.44 -2.832,2.736 -7.632,2.736 z m 54.80003,0 q -4.848,0 -7.776,-2.688 -2.928,-2.736 -2.928,-7.488 v -7.056 q 0,-4.704 2.928,-7.392 2.928,-2.736 7.776,-2.736 4.656,0 7.488,2.496 2.88,2.448 3.024,6.72 h -4.704 q -0.144,-2.4 -1.728,-3.696 -1.536,-1.344 -4.08,-1.344 -2.736,0 -4.368,1.584 -1.584,1.536 -1.584,4.368 v 7.056 q 0,2.88 1.584,4.416 1.632,1.536 4.368,1.536 2.592,0 4.128,-1.296 1.536,-1.296 1.68,-3.696 h 4.704 q -0.144,4.272 -3.024,6.768 -2.832,2.448 -7.488,2.448 z m 24.56802,0 q -4.08,0 -6.48,-2.256 -2.352,-2.304 -2.352,-6 0,-3.696 2.448,-5.952 2.496,-2.256 6.528,-2.256 h 7.728 V 228 q 0,-4.848 -5.376,-4.848 -2.4,0 -3.888,0.912 -1.44,0.864 -1.536,2.448 h -4.704 q 0.24,-3.216 2.928,-5.28 2.688,-2.112 7.2,-2.112 4.848,0 7.488,2.304 2.64,2.304 2.64,6.48 V 246 h -4.656 v -4.848 h -0.096 q -0.336,2.448 -2.448,3.888 -2.064,1.44 -5.424,1.44 z m 1.248,-3.984 q 3.024,0 4.8,-1.44 1.824,-1.488 1.824,-4.032 v -3.504 h -7.296 q -2.064,0 -3.36,1.248 -1.248,1.2 -1.248,3.216 0,2.064 1.392,3.312 1.392,1.2 3.888,1.2 z M 379.62421,246 v -26.4 h 4.704 v 5.04 h 0.048 q 0.336,-2.592 2.16,-4.032 1.872,-1.488 4.896,-1.488 3.936,0 6.288,2.496 2.352,2.496 2.352,6.72 V 246 h -4.752 v -16.896 q 0,-2.88 -1.44,-4.416 -1.44,-1.536 -3.936,-1.536 -2.592,0 -4.08,1.632 -1.488,1.584 -1.488,4.464 V 246 Z m 35.32002,-20.64 -0.384,-14.4 h 5.28 l -0.336,14.4 z m 32.296,20.64 q -3.408,0 -5.424,-1.968 -1.968,-1.968 -1.968,-5.232 v -14.88 h -7.536 v -4.32 h 7.536 v -7.44 h 4.752 v 7.44 h 10.704 v 4.32 h -10.704 v 14.832 q 0,1.296 0.72,2.112 0.768,0.816 2.016,0.816 h 7.728 V 246 Z m 56.09604,0 q -3.6,0 -5.76,-2.112 -2.16,-2.112 -2.16,-5.616 V 215.28 h -9.024 v -4.32 h 13.776 v 27.264 q 0,1.584 0.864,2.544 0.912,0.912 2.448,0.912 h 8.016 V 246 Z m 13.04803,0 v -4.32 h 9.264 v -17.76 h -8.304 v -4.32 h 13.056 v 22.08 h 8.688 V 246 Z m 11.184,-31.056 q -1.632,0 -2.592,-0.816 -0.96,-0.864 -0.96,-2.304 0,-1.488 0.96,-2.352 0.96,-0.864 2.592,-0.864 1.632,0 2.592,0.864 0.96,0.864 0.96,2.352 0,1.44 -0.96,2.304 -0.96,0.816 -2.592,0.816 z m 26.63202,31.536 q -4.752,0 -7.68,-2.832 -2.88,-2.832 -2.88,-7.728 v -6.24 q 0,-4.896 2.88,-7.728 2.928,-2.832 7.68,-2.832 3.168,0 5.52,1.296 2.4,1.248 3.696,3.552 1.344,2.256 1.344,5.28 V 234 h -16.464 v 2.304 q 0,2.88 1.584,4.512 1.584,1.632 4.32,1.632 2.304,0 3.792,-0.864 1.488,-0.864 1.776,-2.4 h 4.752 q -0.48,3.36 -3.312,5.328 -2.832,1.968 -7.008,1.968 z m -5.904,-17.232 v 1.248 h 11.808 v -1.248 q 0,-3.024 -1.536,-4.656 -1.536,-1.632 -4.368,-1.632 -2.832,0 -4.368,1.632 -1.536,1.632 -1.536,4.656 z m 33.304,17.232 q -1.824,0 -2.976,-1.104 -1.104,-1.104 -1.104,-2.832 0,-1.824 1.104,-2.976 1.152,-1.152 2.976,-1.152 1.824,0 2.928,1.152 1.152,1.152 1.152,2.976 0,1.728 -1.152,2.832 -1.104,1.104 -2.928,1.104 z"
     id="text8"
     style="font-weight:500;font-size:48px;letter-spacing:-1.4;fill:#a8d68a"
     aria-label="Your RPC can't lie." />
  <path
     d="m 77.6,292.12 q -1.164,0 -1.884,-0.696 -0.708,-0.708 -0.708,-1.944 v -1.56 q 0,-1.236 0.708,-1.932 0.72,-0.708 1.884,-0.708 0.78,0 1.356,0.312 0.588,0.312 0.912,0.876 0.324,0.564 0.324,1.332 v 1.176 h -4.128 v 0.624 q 0,0.732 0.42,1.164 0.42,0.42 1.116,0.42 0.6,0 0.984,-0.228 0.396,-0.24 0.48,-0.636 h 1.08 q -0.108,0.828 -0.804,1.32 -0.696,0.48 -1.74,0.48 z m -1.536,-3.984 h 3.072 V 287.8 q 0,-0.78 -0.408,-1.2 -0.396,-0.432 -1.128,-0.432 -0.732,0 -1.14,0.432 -0.396,0.42 -0.396,1.2 z M 85.460005,292 q -0.816,0 -1.308,-0.468 -0.492,-0.48 -0.492,-1.272 v -3.876 h -1.896 V 285.4 h 1.896 v -1.86 h 1.08 v 1.86 h 2.7 v 0.984 h -2.7 v 3.876 q 0,0.336 0.192,0.552 0.204,0.204 0.528,0.204 h 1.92 V 292 Z m 4.044004,0 v -8.76 h 1.08 v 3.42 h 0.012 q 0.084,-0.66 0.54,-1.02 0.456,-0.36 1.212,-0.36 0.996,0 1.584,0.612 0.588,0.612 0.588,1.668 V 292 h -1.08 v -4.26 q 0,-0.744 -0.384,-1.14 -0.372,-0.408 -1.02,-0.408 -0.672,0 -1.068,0.42 -0.384,0.42 -0.384,1.188 v 4.2 z m 9.696005,0.12 q -1.164,0 -1.884,-0.696 -0.708,-0.708 -0.708,-1.944 v -1.56 q 0,-1.236 0.708,-1.932 0.72,-0.708 1.884,-0.708 0.78,0 1.355996,0.312 0.588,0.312 0.912,0.876 0.324,0.564 0.324,1.332 v 1.176 h -4.127996 v 0.624 q 0,0.732 0.42,1.164 0.42,0.42 1.116,0.42 0.6,0 0.983996,-0.228 0.396,-0.24 0.48,-0.636 h 1.08 q -0.108,0.828 -0.804,1.32 -0.696,0.48 -1.739996,0.48 z m -1.536,-3.984 h 3.071996 V 287.8 q 0,-0.78 -0.408,-1.2 -0.395996,-0.432 -1.127996,-0.432 -0.732,0 -1.14,0.432 -0.396,0.42 -0.396,1.2 z M 104.14402,292 v -6.6 h 1.08 v 1.26 h 0.024 q 0.084,-0.636 0.54,-1.008 0.456,-0.372 1.224,-0.372 1.032,0 1.584,0.624 0.564,0.612 0.564,1.752 v 0.564 h -1.08 v -0.564 q 0,-1.44 -1.404,-1.44 -0.708,0 -1.08,0.408 -0.372,0.408 -0.372,1.176 v 4.2 z m 9.456,0.12 q -1.164,0 -1.884,-0.696 -0.708,-0.708 -0.708,-1.944 v -1.56 q 0,-1.236 0.708,-1.932 0.72,-0.708 1.884,-0.708 0.78,0 1.356,0.312 0.588,0.312 0.912,0.876 0.324,0.564 0.324,1.332 v 1.176 h -4.128 v 0.624 q 0,0.732 0.42,1.164 0.42,0.42 1.116,0.42 0.6,0 0.984,-0.228 0.396,-0.24 0.48,-0.636 h 1.08 q -0.108,0.828 -0.804,1.32 -0.696,0.48 -1.74,0.48 z m -1.536,-3.984 h 3.072 V 287.8 q 0,-0.78 -0.408,-1.2 -0.396,-0.432 -1.128,-0.432 -0.732,0 -1.14,0.432 -0.396,0.42 -0.396,1.2 z m 8.72401,3.984 q -1.14,0 -1.824,-0.672 -0.684,-0.684 -0.684,-1.848 v -4.2 h 1.08 v 4.2 q 0,0.72 0.384,1.152 0.384,0.42 1.044,0.42 0.672,0 1.056,-0.42 0.396,-0.432 0.396,-1.152 v -4.2 h 1.08 v 4.2 q 0,1.164 -0.696,1.848 -0.696,0.672 -1.836,0.672 z m 4.332,-0.12 v -6.6 h 0.936 v 0.876 h 0.024 q 0.06,-0.444 0.348,-0.72 0.3,-0.276 0.756,-0.276 0.432,0 0.732,0.252 0.3,0.252 0.432,0.684 h 0.012 q 0.084,-0.432 0.372,-0.684 0.3,-0.252 0.756,-0.252 0.636,0 1.008,0.48 0.384,0.468 0.384,1.224 V 292 h -1.008 v -5.028 q 0,-0.396 -0.192,-0.624 -0.192,-0.24 -0.528,-0.24 -0.324,0 -0.516,0.228 -0.192,0.228 -0.192,0.624 V 292 h -0.888 v -5.028 q 0,-0.396 -0.192,-0.624 -0.192,-0.24 -0.516,-0.24 -0.336,0 -0.528,0.228 -0.192,0.228 -0.192,0.624 V 292 Z m 17.28001,-3.12 q -0.444,0 -0.72,-0.264 -0.264,-0.264 -0.264,-0.684 0,-0.444 0.264,-0.72 0.276,-0.276 0.72,-0.276 0.444,0 0.708,0.276 0.276,0.276 0.276,0.72 0,0.42 -0.276,0.684 -0.264,0.264 -0.708,0.264 z m 14.40001,3.216 q -1.188,0 -1.896,-0.696 -0.696,-0.696 -0.696,-1.944 v -1.512 q 0,-1.26 0.696,-1.944 0.696,-0.696 1.896,-0.696 1.2,0 1.896,0.696 0.696,0.684 0.696,1.944 v 1.512 q 0,1.248 -0.708,1.944 -0.696,0.696 -1.884,0.696 z m 0,-0.96 q 0.708,0 1.104,-0.396 0.408,-0.396 0.408,-1.164 v -1.752 q 0,-0.768 -0.408,-1.164 -0.396,-0.396 -1.104,-0.396 -0.696,0 -1.104,0.396 -0.408,0.396 -0.408,1.164 v 1.752 q 0,0.768 0.408,1.164 0.408,0.396 1.104,0.396 z m 4.704,3.024 v -8.76 h 1.08 v 1.26 h 0.012 q 0.084,-0.648 0.564,-1.008 0.48,-0.372 1.224,-0.372 0.996,0 1.584,0.66 0.588,0.648 0.588,1.788 v 1.932 q 0,1.14 -0.588,1.8 -0.588,0.66 -1.584,0.66 -0.744,0 -1.224,-0.372 -0.48,-0.372 -0.564,-1.008 h -0.036 l 0.024,1.5 v 1.92 z m 2.52,-2.976 q 0.684,0 1.068,-0.36 0.384,-0.36 0.384,-1.164 v -1.92 q 0,-0.816 -0.384,-1.164 -0.384,-0.36 -1.068,-0.36 -0.66,0 -1.056,0.42 -0.384,0.42 -0.384,1.164 v 1.8 q 0,0.744 0.384,1.164 0.396,0.42 1.056,0.42 z m 7.83601,0.816 q -0.816,0 -1.308,-0.468 -0.492,-0.48 -0.492,-1.272 v -3.876 h -1.896 V 285.4 h 1.896 v -1.86 h 1.08 v 1.86 h 2.7 v 0.984 h -2.7 v 3.876 q 0,0.336 0.192,0.552 0.204,0.204 0.528,0.204 h 1.92 V 292 Z m 3.96,0 v -0.984 h 2.34 v -4.632 h -2.1 V 285.4 h 3.18 v 5.616 h 2.22 V 292 Z m 2.76,-7.788 q -0.396,0 -0.624,-0.204 -0.228,-0.204 -0.228,-0.552 0,-0.36 0.228,-0.564 0.228,-0.216 0.624,-0.216 0.396,0 0.624,0.216 0.228,0.204 0.228,0.564 0,0.348 -0.228,0.552 -0.228,0.204 -0.624,0.204 z m 4.14001,7.788 v -6.6 h 0.936 v 0.876 h 0.024 q 0.06,-0.444 0.348,-0.72 0.3,-0.276 0.756,-0.276 0.432,0 0.732,0.252 0.3,0.252 0.432,0.684 h 0.012 q 0.084,-0.432 0.372,-0.684 0.3,-0.252 0.756,-0.252 0.636,0 1.008,0.48 0.384,0.468 0.384,1.224 V 292 h -1.008 v -5.028 q 0,-0.396 -0.192,-0.624 -0.192,-0.24 -0.528,-0.24 -0.324,0 -0.516,0.228 -0.192,0.228 -0.192,0.624 V 292 h -0.888 v -5.028 q 0,-0.396 -0.192,-0.624 -0.192,-0.24 -0.516,-0.24 -0.336,0 -0.528,0.228 -0.192,0.228 -0.192,0.624 V 292 Z m 7.5,0 v -0.984 h 2.34 v -4.632 h -2.1 V 285.4 h 3.18 v 5.616 h 2.22 V 292 Z m 2.76,-7.788 q -0.396,0 -0.624,-0.204 -0.228,-0.204 -0.228,-0.552 0,-0.36 0.228,-0.564 0.228,-0.216 0.624,-0.216 0.396,0 0.624,0.216 0.228,0.204 0.228,0.564 0,0.348 -0.228,0.552 -0.228,0.204 -0.624,0.204 z m 6.75601,7.884 q -1.104,0 -1.716,-0.492 -0.6,-0.504 -0.6,-1.416 h 1.08 q 0,0.456 0.324,0.72 0.324,0.252 0.912,0.252 h 0.528 q 0.6,0 0.924,-0.264 0.336,-0.264 0.336,-0.744 0,-0.852 -0.78,-0.96 l -1.824,-0.264 q -0.672,-0.096 -1.044,-0.552 -0.372,-0.468 -0.372,-1.224 0,-0.864 0.588,-1.356 0.6,-0.492 1.644,-0.492 h 0.528 q 0.96,0 1.56,0.48 0.612,0.468 0.66,1.236 h -1.092 q -0.024,-0.348 -0.336,-0.576 -0.3,-0.228 -0.792,-0.228 h -0.528 q -0.552,0 -0.864,0.252 -0.312,0.252 -0.312,0.684 0,0.696 0.636,0.792 l 1.704,0.24 q 1.68,0.24 1.68,1.968 0,0.924 -0.612,1.44 -0.6,0.504 -1.704,0.504 z m 4.584,-0.096 v -6.6 h 0.936 v 0.876 h 0.024 q 0.06,-0.444 0.348,-0.72 0.3,-0.276 0.756,-0.276 0.432,0 0.732,0.252 0.3,0.252 0.432,0.684 h 0.012 q 0.084,-0.432 0.372,-0.684 0.3,-0.252 0.756,-0.252 0.636,0 1.008,0.48 0.384,0.468 0.384,1.224 V 292 h -1.008 v -5.028 q 0,-0.396 -0.192,-0.624 -0.192,-0.24 -0.528,-0.24 -0.324,0 -0.516,0.228 -0.192,0.228 -0.192,0.624 V 292 h -0.888 v -5.028 q 0,-0.396 -0.192,-0.624 -0.192,-0.24 -0.516,-0.24 -0.336,0 -0.528,0.228 -0.192,0.228 -0.192,0.624 V 292 Z m 17.28001,-3.12 q -0.444,0 -0.72,-0.264 -0.264,-0.264 -0.264,-0.684 0,-0.444 0.264,-0.72 0.276,-0.276 0.72,-0.276 0.444,0 0.708,0.276 0.276,0.276 0.276,0.72 0,0.42 -0.276,0.684 -0.264,0.264 -0.708,0.264 z m 14.78401,3.24 q -0.744,0 -1.224,-0.36 -0.48,-0.372 -0.564,-1.02 h -0.012 V 292 h -1.08 v -8.76 h 1.08 v 1.92 l -0.024,1.5 h 0.012 q 0.096,-0.636 0.576,-1.008 0.492,-0.372 1.236,-0.372 0.996,0 1.584,0.66 0.588,0.66 0.588,1.8 v 1.932 q 0,1.128 -0.588,1.788 -0.588,0.66 -1.584,0.66 z m -0.36,-0.936 q 0.684,0 1.068,-0.36 0.384,-0.36 0.384,-1.164 v -1.92 q 0,-0.816 -0.384,-1.164 -0.384,-0.36 -1.068,-0.36 -0.66,0 -1.056,0.42 -0.384,0.42 -0.384,1.164 v 1.8 q 0,0.744 0.384,1.164 0.396,0.42 1.056,0.42 z m 6.6,0.936 q -1.02,0 -1.62,-0.564 -0.6,-0.576 -0.6,-1.5 0,-0.612 0.276,-1.068 0.276,-0.456 0.768,-0.708 0.492,-0.264 1.128,-0.264 h 2.04 V 287.5 q 0,-1.284 -1.404,-1.284 -0.624,0 -1.008,0.228 -0.384,0.228 -0.408,0.636 h -1.08 q 0.06,-0.78 0.72,-1.284 0.672,-0.516 1.776,-0.516 1.2,0 1.836,0.576 0.648,0.576 0.648,1.608 V 292 h -1.068 v -1.2 h -0.024 q -0.096,0.612 -0.612,0.972 -0.516,0.348 -1.368,0.348 z m 0.264,-0.912 q 0.792,0 1.26,-0.384 0.468,-0.384 0.468,-1.044 v -0.924 h -1.92 q -0.528,0 -0.864,0.324 -0.324,0.312 -0.324,0.84 0,0.552 0.36,0.876 0.372,0.312 1.02,0.312 z m 7.24801,0.888 q -1.104,0 -1.716,-0.492 -0.6,-0.504 -0.6,-1.416 h 1.08 q 0,0.456 0.324,0.72 0.324,0.252 0.912,0.252 h 0.528 q 0.6,0 0.924,-0.264 0.336,-0.264 0.336,-0.744 0,-0.852 -0.78,-0.96 l -1.824,-0.264 q -0.672,-0.096 -1.044,-0.552 -0.372,-0.468 -0.372,-1.224 0,-0.864 0.588,-1.356 0.6,-0.492 1.644,-0.492 h 0.528 q 0.96,0 1.56,0.48 0.612,0.468 0.66,1.236 h -1.092 q -0.024,-0.348 -0.336,-0.576 -0.3,-0.228 -0.792,-0.228 h -0.528 q -0.552,0 -0.864,0.252 -0.312,0.252 -0.312,0.684 0,0.696 0.636,0.792 l 1.704,0.24 q 1.68,0.24 1.68,1.968 0,0.924 -0.612,1.44 -0.6,0.504 -1.704,0.504 z m 7.46401,0.024 q -1.164,0 -1.884,-0.696 -0.708,-0.708 -0.708,-1.944 v -1.56 q 0,-1.236 0.708,-1.932 0.72,-0.708 1.884,-0.708 0.78,0 1.356,0.312 0.588,0.312 0.912,0.876 0.324,0.564 0.324,1.332 v 1.176 h -4.128 v 0.624 q 0,0.732 0.42,1.164 0.42,0.42 1.116,0.42 0.6,0 0.984,-0.228 0.396,-0.24 0.48,-0.636 h 1.08 q -0.108,0.828 -0.804,1.32 -0.696,0.48 -1.74,0.48 z m -1.536,-3.984 h 3.072 V 287.8 q 0,-0.78 -0.408,-1.2 -0.396,-0.432 -1.128,-0.432 -0.732,0 -1.14,0.432 -0.396,0.42 -0.396,1.2 z m 15.936,0.744 q -0.444,0 -0.72,-0.264 -0.264,-0.264 -0.264,-0.684 0,-0.444 0.264,-0.72 0.276,-0.276 0.72,-0.276 0.444,0 0.708,0.276 0.276,0.276 0.276,0.72 0,0.42 -0.276,0.684 -0.264,0.264 -0.708,0.264 z m 15.36002,3.12 q -0.876,0 -1.404,-0.504 -0.516,-0.516 -0.516,-1.356 v -5.916 h -2.28 v -0.984 h 3.36 v 6.9 q 0,0.408 0.228,0.648 0.228,0.228 0.612,0.228 h 2.04 V 292 Z m 3.66,0 v -0.984 h 2.34 v -4.632 h -2.1 V 285.4 h 3.18 v 5.616 h 2.22 V 292 Z m 2.76,-7.788 q -0.396,0 -0.624,-0.204 -0.228,-0.204 -0.228,-0.552 0,-0.36 0.228,-0.564 0.228,-0.216 0.624,-0.216 0.396,0 0.624,0.216 0.228,0.204 0.228,0.564 0,0.348 -0.228,0.552 -0.228,0.204 -0.624,0.204 z m 4.52399,7.788 v -6.6 h 1.08 v 1.26 h 0.012 q 0.084,-0.66 0.54,-1.02 0.456,-0.36 1.212,-0.36 0.996,0 1.584,0.612 0.588,0.612 0.588,1.668 V 292 h -1.08 v -4.248 q 0,-0.756 -0.384,-1.152 -0.372,-0.408 -1.02,-0.408 -0.672,0 -1.068,0.42 -0.384,0.42 -0.384,1.188 v 4.2 z m 9.69602,0.12 q -1.164,0 -1.884,-0.696 -0.708,-0.708 -0.708,-1.944 v -1.56 q 0,-1.236 0.708,-1.932 0.72,-0.708 1.884,-0.708 0.78,0 1.356,0.312 0.588,0.312 0.912,0.876 0.324,0.564 0.324,1.332 v 1.176 h -4.128 v 0.624 q 0,0.732 0.42,1.164 0.42,0.42 1.116,0.42 0.6,0 0.984,-0.228 0.396,-0.24 0.48,-0.636 h 1.08 q -0.108,0.828 -0.804,1.32 -0.696,0.48 -1.74,0.48 z m -1.536,-3.984 h 3.072 V 287.8 q 0,-0.78 -0.408,-1.2 -0.396,-0.432 -1.128,-0.432 -0.732,0 -1.14,0.432 -0.396,0.42 -0.396,1.2 z m 8.16001,3.984 q -1.02,0 -1.62,-0.564 -0.6,-0.576 -0.6,-1.5 0,-0.612 0.276,-1.068 0.276,-0.456 0.768,-0.708 0.492,-0.264 1.128,-0.264 h 2.04 V 287.5 q 0,-1.284 -1.404,-1.284 -0.624,0 -1.008,0.228 -0.384,0.228 -0.408,0.636 h -1.08 q 0.06,-0.78 0.72,-1.284 0.672,-0.516 1.776,-0.516 1.2,0 1.836,0.576 0.648,0.576 0.648,1.608 V 292 h -1.068 v -1.2 h -0.024 q -0.096,0.612 -0.612,0.972 -0.516,0.348 -1.368,0.348 z m 0.264,-0.912 q 0.792,0 1.26,-0.384 0.468,-0.384 0.468,-1.044 v -0.924 h -1.92 q -0.528,0 -0.864,0.324 -0.324,0.312 -0.324,0.84 0,0.552 0.36,0.876 0.372,0.312 1.02,0.312 z"
     id="text9"
     style="font-size:12px;fill:#5e7c4e"
     aria-label="ethereum · optimism · base · linea" />
  <path
     d="m 77.6,306.12 q -1.164,0 -1.884,-0.696 -0.708,-0.708 -0.708,-1.944 v -1.56 q 0,-1.236 0.708,-1.932 0.72,-0.708 1.884,-0.708 0.78,0 1.356,0.312 0.588,0.312 0.912,0.876 0.324,0.564 0.324,1.332 v 1.176 h -4.128 v 0.624 q 0,0.732 0.42,1.164 0.42,0.42 1.116,0.42 0.6,0 0.984,-0.228 0.396,-0.24 0.48,-0.636 h 1.08 q -0.108,0.828 -0.804,1.32 -0.696,0.48 -1.74,0.48 z m -1.536,-3.984 h 3.072 V 301.8 q 0,-0.78 -0.408,-1.2 -0.396,-0.432 -1.128,-0.432 -0.732,0 -1.14,0.432 -0.396,0.42 -0.396,1.2 z M 81.920005,306 v -6.6 h 0.936 v 0.876 h 0.024 q 0.06,-0.444 0.348,-0.72 0.3,-0.276 0.756,-0.276 0.432,0 0.732,0.252 0.3,0.252 0.432,0.684 h 0.012 q 0.084,-0.432 0.372,-0.684 0.3,-0.252 0.756,-0.252 0.636,0 1.008,0.48 0.384,0.468 0.384,1.224 V 306 h -1.008 v -5.028 q 0,-0.396 -0.192,-0.624 -0.192,-0.24 -0.528,-0.24 -0.324,0 -0.516,0.228 -0.192,0.228 -0.192,0.624 V 306 h -0.888 v -5.028 q 0,-0.396 -0.192,-0.624 -0.192,-0.24 -0.516,-0.24 -0.336,0 -0.528,0.228 -0.192,0.228 -0.192,0.624 V 306 Z m 10.464004,0.12 q -0.744,0 -1.224,-0.36 -0.48,-0.372 -0.564,-1.02 h -0.012 V 306 h -1.08 v -8.76 h 1.08 v 1.92 l -0.024,1.5 h 0.012 q 0.096,-0.636 0.576,-1.008 0.492,-0.372 1.236,-0.372 0.996,0 1.584,0.66 0.588,0.66 0.588,1.8 v 1.932 q 0,1.128 -0.588,1.788 -0.588,0.66 -1.584,0.66 z m -0.36,-0.936 q 0.684,0 1.068,-0.36 0.384,-0.36 0.384,-1.164 v -1.92 q 0,-0.816 -0.384,-1.164 -0.384,-0.36 -1.068,-0.36 -0.66,0 -1.056,0.42 -0.384,0.42 -0.384,1.164 v 1.8 q 0,0.744 0.384,1.164 0.396,0.42 1.056,0.42 z m 7.176005,0.936 q -1.164,0 -1.884,-0.696 -0.708,-0.708 -0.708,-1.944 v -1.56 q 0,-1.236 0.708,-1.932 0.72,-0.708 1.884,-0.708 0.78,0 1.355996,0.312 0.588,0.312 0.912,0.876 0.324,0.564 0.324,1.332 v 1.176 h -4.127996 v 0.624 q 0,0.732 0.42,1.164 0.42,0.42 1.116,0.42 0.6,0 0.983996,-0.228 0.396,-0.24 0.48,-0.636 h 1.08 q -0.108,0.828 -0.804,1.32 -0.696,0.48 -1.739996,0.48 z m -1.536,-3.984 h 3.071996 V 301.8 q 0,-0.78 -0.408,-1.2 -0.395996,-0.432 -1.127996,-0.432 -0.732,0 -1.14,0.432 -0.396,0.42 -0.396,1.2 z m 8.352006,3.984 q -0.984,0 -1.584,-0.66 -0.588,-0.66 -0.588,-1.788 v -1.932 q 0,-1.14 0.588,-1.8 0.588,-0.66 1.584,-0.66 0.744,0 1.224,0.372 0.492,0.372 0.588,1.008 h 0.012 l -0.024,-1.5 v -1.92 h 1.08 V 306 h -1.08 v -1.26 h -0.012 q -0.084,0.648 -0.564,1.02 -0.48,0.36 -1.224,0.36 z m 0.36,-0.936 q 0.672,0 1.056,-0.42 0.384,-0.42 0.384,-1.164 v -1.8 q 0,-0.744 -0.384,-1.164 -0.384,-0.42 -1.056,-0.42 -0.684,0 -1.068,0.36 -0.384,0.348 -0.384,1.164 v 1.92 q 0,0.804 0.384,1.164 0.384,0.36 1.068,0.36 z m 6.84,0.936 q -0.984,0 -1.584,-0.66 -0.588,-0.66 -0.588,-1.788 v -1.932 q 0,-1.14 0.588,-1.8 0.588,-0.66 1.584,-0.66 0.744,0 1.224,0.372 0.492,0.372 0.588,1.008 h 0.012 l -0.024,-1.5 v -1.92 h 1.08 V 306 h -1.08 v -1.26 h -0.012 q -0.084,0.648 -0.564,1.02 -0.48,0.36 -1.224,0.36 z m 0.36,-0.936 q 0.672,0 1.056,-0.42 0.384,-0.42 0.384,-1.164 v -1.8 q 0,-0.744 -0.384,-1.164 -0.384,-0.42 -1.056,-0.42 -0.684,0 -1.068,0.36 -0.384,0.348 -0.384,1.164 v 1.92 q 0,0.804 0.384,1.164 0.384,0.36 1.068,0.36 z m 6.64801,0.936 q -1.02,0 -1.62,-0.564 -0.6,-0.576 -0.6,-1.5 0,-0.612 0.276,-1.068 0.276,-0.456 0.768,-0.708 0.492,-0.264 1.128,-0.264 h 2.04 V 301.5 q 0,-1.284 -1.404,-1.284 -0.624,0 -1.008,0.228 -0.384,0.228 -0.408,0.636 h -1.08 q 0.06,-0.78 0.72,-1.284 0.672,-0.516 1.776,-0.516 1.2,0 1.836,0.576 0.648,0.576 0.648,1.608 V 306 h -1.068 v -1.2 h -0.024 q -0.096,0.612 -0.612,0.972 -0.516,0.348 -1.368,0.348 z m 0.264,-0.912 q 0.792,0 1.26,-0.384 0.468,-0.384 0.468,-1.044 v -0.924 h -1.92 q -0.528,0 -0.864,0.324 -0.324,0.312 -0.324,0.84 0,0.552 0.36,0.876 0.372,0.312 1.02,0.312 z m 7.896,0.912 q -0.744,0 -1.224,-0.36 -0.48,-0.372 -0.564,-1.02 h -0.012 V 306 h -1.08 v -8.76 h 1.08 v 1.92 l -0.024,1.5 h 0.012 q 0.096,-0.636 0.576,-1.008 0.492,-0.372 1.236,-0.372 0.996,0 1.584,0.66 0.588,0.66 0.588,1.8 v 1.932 q 0,1.128 -0.588,1.788 -0.588,0.66 -1.584,0.66 z m -0.36,-0.936 q 0.684,0 1.068,-0.36 0.384,-0.36 0.384,-1.164 v -1.92 q 0,-0.816 -0.384,-1.164 -0.384,-0.36 -1.068,-0.36 -0.66,0 -1.056,0.42 -0.384,0.42 -0.384,1.164 v 1.8 q 0,0.744 0.384,1.164 0.396,0.42 1.056,0.42 z m 8.13601,0.816 q -0.876,0 -1.404,-0.504 -0.516,-0.516 -0.516,-1.356 v -5.916 h -2.28 v -0.984 h 3.36 v 6.9 q 0,0.408 0.228,0.648 0.228,0.228 0.612,0.228 h 2.04 V 306 Z m 6.24,0.12 q -1.164,0 -1.884,-0.696 -0.708,-0.708 -0.708,-1.944 v -1.56 q 0,-1.236 0.708,-1.932 0.72,-0.708 1.884,-0.708 0.78,0 1.356,0.312 0.588,0.312 0.912,0.876 0.324,0.564 0.324,1.332 v 1.176 h -4.128 v 0.624 q 0,0.732 0.42,1.164 0.42,0.42 1.116,0.42 0.6,0 0.984,-0.228 0.396,-0.24 0.48,-0.636 h 1.08 q -0.108,0.828 -0.804,1.32 -0.696,0.48 -1.74,0.48 z m -1.536,-3.984 h 3.072 V 301.8 q 0,-0.78 -0.408,-1.2 -0.396,-0.432 -1.128,-0.432 -0.732,0 -1.14,0.432 -0.396,0.42 -0.396,1.2 z M 154.22005,306 v -0.984 h 2.34 v -4.632 h -2.1 V 299.4 h 3.18 v 5.616 h 2.22 V 306 Z m 2.76,-7.788 q -0.396,0 -0.624,-0.204 -0.228,-0.204 -0.228,-0.552 0,-0.36 0.228,-0.564 0.228,-0.216 0.624,-0.216 0.396,0 0.624,0.216 0.228,0.204 0.228,0.564 0,0.348 -0.228,0.552 -0.228,0.204 -0.624,0.204 z m 4.524,7.788 v -6.6 h 1.08 v 1.26 h 0.012 q 0.084,-0.66 0.54,-1.02 0.456,-0.36 1.212,-0.36 0.996,0 1.584,0.612 0.588,0.612 0.588,1.668 V 306 h -1.08 v -4.248 q 0,-0.756 -0.384,-1.152 -0.372,-0.408 -1.02,-0.408 -0.672,0 -1.068,0.42 -0.384,0.42 -0.384,1.188 v 4.2 z m 14.01601,0 v -6.6 h 0.936 v 0.876 h 0.024 q 0.06,-0.444 0.348,-0.72 0.3,-0.276 0.756,-0.276 0.432,0 0.732,0.252 0.3,0.252 0.432,0.684 h 0.012 q 0.084,-0.432 0.372,-0.684 0.3,-0.252 0.756,-0.252 0.636,0 1.008,0.48 0.384,0.468 0.384,1.224 V 306 h -1.008 v -5.028 q 0,-0.396 -0.192,-0.624 -0.192,-0.24 -0.528,-0.24 -0.324,0 -0.516,0.228 -0.192,0.228 -0.192,0.624 V 306 h -0.888 v -5.028 q 0,-0.396 -0.192,-0.624 -0.192,-0.24 -0.516,-0.24 -0.336,0 -0.528,0.228 -0.192,0.228 -0.192,0.624 V 306 Z m 10.08001,0.096 q -1.188,0 -1.896,-0.696 -0.696,-0.696 -0.696,-1.944 v -1.512 q 0,-1.26 0.696,-1.944 0.696,-0.696 1.896,-0.696 1.2,0 1.896,0.696 0.696,0.684 0.696,1.944 v 1.512 q 0,1.248 -0.708,1.944 -0.696,0.696 -1.884,0.696 z m 0,-0.96 q 0.708,0 1.104,-0.396 0.408,-0.396 0.408,-1.164 v -1.752 q 0,-0.768 -0.408,-1.164 -0.396,-0.396 -1.104,-0.396 -0.696,0 -1.104,0.396 -0.408,0.396 -0.408,1.164 v 1.752 q 0,0.768 0.408,1.164 0.408,0.396 1.104,0.396 z m 7.584,0.984 q -0.744,0 -1.224,-0.36 -0.48,-0.372 -0.564,-1.02 h -0.012 V 306 h -1.08 v -8.76 h 1.08 v 1.92 l -0.024,1.5 h 0.012 q 0.096,-0.636 0.576,-1.008 0.492,-0.372 1.236,-0.372 0.996,0 1.584,0.66 0.588,0.66 0.588,1.8 v 1.932 q 0,1.128 -0.588,1.788 -0.588,0.66 -1.584,0.66 z m -0.36,-0.936 q 0.684,0 1.068,-0.36 0.384,-0.36 0.384,-1.164 v -1.92 q 0,-0.816 -0.384,-1.164 -0.384,-0.36 -1.068,-0.36 -0.66,0 -1.056,0.42 -0.384,0.42 -0.384,1.164 v 1.8 q 0,0.744 0.384,1.164 0.396,0.42 1.056,0.42 z m 4.59601,0.816 v -0.984 h 2.34 v -4.632 h -2.1 V 299.4 h 3.18 v 5.616 h 2.22 V 306 Z m 2.76,-7.788 q -0.396,0 -0.624,-0.204 -0.228,-0.204 -0.228,-0.552 0,-0.36 0.228,-0.564 0.228,-0.216 0.624,-0.216 0.396,0 0.624,0.216 0.228,0.204 0.228,0.564 0,0.348 -0.228,0.552 -0.228,0.204 -0.624,0.204 z m 7.98,7.788 q -0.876,0 -1.404,-0.504 -0.516,-0.516 -0.516,-1.356 v -5.916 h -2.28 v -0.984 h 3.36 v 6.9 q 0,0.408 0.228,0.648 0.228,0.228 0.612,0.228 h 2.04 V 306 Z m 6.24,0.12 q -1.164,0 -1.884,-0.696 -0.708,-0.708 -0.708,-1.944 v -1.56 q 0,-1.236 0.708,-1.932 0.72,-0.708 1.884,-0.708 0.78,0 1.356,0.312 0.588,0.312 0.912,0.876 0.324,0.564 0.324,1.332 v 1.176 h -4.128 v 0.624 q 0,0.732 0.42,1.164 0.42,0.42 1.116,0.42 0.6,0 0.984,-0.228 0.396,-0.24 0.48,-0.636 h 1.08 q -0.108,0.828 -0.804,1.32 -0.696,0.48 -1.74,0.48 z m -1.536,-3.984 h 3.072 V 301.8 q 0,-0.78 -0.408,-1.2 -0.396,-0.432 -1.128,-0.432 -0.732,0 -1.14,0.432 -0.396,0.42 -0.396,1.2 z m 13.23602,5.184 4.26,-11.28 h 1.14 l -4.26,11.28 z m 14.784,-1.32 -1.044,-8.76 h 0.996 l 0.684,6.48 q 0.048,0.396 0.072,0.828 0.024,0.42 0.036,0.672 0.024,-0.252 0.06,-0.672 0.048,-0.432 0.096,-0.828 l 0.864,-6.48 h 1.164 l 0.792,6.48 q 0.048,0.396 0.096,0.828 0.048,0.42 0.072,0.672 0.024,-0.252 0.048,-0.672 0.036,-0.432 0.084,-0.828 l 0.708,-6.48 h 0.948 l -1.068,8.76 h -1.356 l -0.792,-6.6 q -0.048,-0.408 -0.072,-0.792 -0.024,-0.396 -0.048,-0.612 -0.024,0.216 -0.048,0.612 -0.024,0.384 -0.084,0.792 l -0.852,6.6 z m 6.51601,0 2.28,-8.76 h 1.452 l 2.268,8.76 h -1.092 l -0.576,-2.328 h -2.652 l -0.576,2.328 z m 1.896,-3.24 h 2.208 l -0.672,-2.7 q -0.192,-0.768 -0.3,-1.284 -0.108,-0.516 -0.132,-0.672 -0.024,0.156 -0.132,0.672 -0.108,0.516 -0.3,1.272 z m 8.35201,3.36 q -1.272,0 -2.028,-0.672 -0.756,-0.672 -0.756,-1.848 h 1.08 q 0,0.732 0.468,1.152 0.468,0.408 1.236,0.408 0.744,0 1.188,-0.432 0.444,-0.432 0.444,-1.128 0,-0.528 -0.288,-0.912 -0.276,-0.396 -0.804,-0.54 l -1.332,-0.372 q -0.828,-0.24 -1.308,-0.852 -0.468,-0.624 -0.468,-1.464 0,-0.696 0.312,-1.224 0.312,-0.528 0.876,-0.816 0.564,-0.3 1.296,-0.3 0.744,0 1.308,0.3 0.576,0.288 0.9,0.816 0.324,0.516 0.324,1.2 h -1.08 q 0,-0.6 -0.408,-0.972 -0.408,-0.384 -1.044,-0.384 -0.636,0 -1.032,0.384 -0.396,0.372 -0.396,0.972 0,0.48 0.252,0.828 0.264,0.336 0.732,0.468 l 1.368,0.384 q 0.876,0.24 1.356,0.912 0.492,0.66 0.492,1.572 0,1.152 -0.732,1.836 -0.732,0.684 -1.956,0.684 z m 4.416,-0.12 v -8.76 h 1.596 l 1.116,3.792 1.164,-3.792 h 1.596 V 306 h -1.044 v -4.14 q 0,-0.588 0.012,-1.344 0.024,-0.768 0.06,-1.548 0.036,-0.78 0.084,-1.404 l -1.416,4.524 h -0.936 l -1.356,-4.416 q 0.096,0.888 0.132,1.944 0.036,1.056 0.036,2.244 V 306 Z m 14.43601,1.32 4.26,-11.28 h 1.14 l -4.26,11.28 z M 291.10414,306 v -6.6 h 1.08 v 1.26 h 0.012 q 0.084,-0.66 0.54,-1.02 0.456,-0.36 1.212,-0.36 0.996,0 1.584,0.612 0.588,0.612 0.588,1.668 V 306 h -1.08 v -4.248 q 0,-0.756 -0.384,-1.152 -0.372,-0.408 -1.02,-0.408 -0.672,0 -1.068,0.42 -0.384,0.42 -0.384,1.188 v 4.2 z m 9.69599,0.096 q -1.188,0 -1.896,-0.696 -0.696,-0.696 -0.696,-1.944 v -1.512 q 0,-1.26 0.696,-1.944 0.696,-0.696 1.896,-0.696 1.2,0 1.896,0.696 0.696,0.684 0.696,1.944 v 1.512 q 0,1.248 -0.708,1.944 -0.696,0.696 -1.884,0.696 z m 0,-0.96 q 0.708,0 1.104,-0.396 0.408,-0.396 0.408,-1.164 v -1.752 q 0,-0.768 -0.408,-1.164 -0.396,-0.396 -1.104,-0.396 -0.696,0 -1.104,0.396 -0.408,0.396 -0.408,1.164 v 1.752 q 0,0.768 0.408,1.164 0.408,0.396 1.104,0.396 z m 5.28002,-2.616 v -0.96 h 3.84 v 0.96 z m 10.08001,3.48 q -0.876,0 -1.404,-0.504 -0.516,-0.516 -0.516,-1.356 v -5.916 h -2.28 v -0.984 h 3.36 v 6.9 q 0,0.408 0.228,0.648 0.228,0.228 0.612,0.228 h 2.04 V 306 Z m 3.66,0 v -0.984 h 2.34 v -4.632 h -2.1 V 299.4 h 3.18 v 5.616 h 2.22 V 306 Z m 2.76,-7.788 q -0.396,0 -0.624,-0.204 -0.228,-0.204 -0.228,-0.552 0,-0.36 0.228,-0.564 0.228,-0.216 0.624,-0.216 0.396,0 0.624,0.216 0.228,0.204 0.228,0.564 0,0.348 -0.228,0.552 -0.228,0.204 -0.624,0.204 z m 7.40399,7.908 q -0.744,0 -1.224,-0.36 -0.48,-0.372 -0.564,-1.02 h -0.012 V 306 h -1.08 v -8.76 h 1.08 v 1.92 l -0.024,1.5 h 0.012 q 0.096,-0.636 0.576,-1.008 0.492,-0.372 1.236,-0.372 0.996,0 1.584,0.66 0.588,0.66 0.588,1.8 v 1.932 q 0,1.128 -0.588,1.788 -0.588,0.66 -1.584,0.66 z m -0.36,-0.936 q 0.684,0 1.068,-0.36 0.384,-0.36 0.384,-1.164 v -1.92 q 0,-0.816 -0.384,-1.164 -0.384,-0.36 -1.068,-0.36 -0.66,0 -1.056,0.42 -0.384,0.42 -0.384,1.164 v 1.8 q 0,0.744 0.384,1.164 0.396,0.42 1.056,0.42 z m 4.68001,2.976 v -8.76 h 1.08 v 1.26 h 0.012 q 0.084,-0.648 0.564,-1.008 0.48,-0.372 1.224,-0.372 0.996,0 1.584,0.66 0.588,0.648 0.588,1.788 v 1.932 q 0,1.14 -0.588,1.8 -0.588,0.66 -1.584,0.66 -0.744,0 -1.224,-0.372 -0.48,-0.372 -0.564,-1.008 h -0.036 l 0.024,1.5 v 1.92 z m 2.52,-2.976 q 0.684,0 1.068,-0.36 0.384,-0.36 0.384,-1.164 v -1.92 q 0,-0.816 -0.384,-1.164 -0.384,-0.36 -1.068,-0.36 -0.66,0 -1.056,0.42 -0.384,0.42 -0.384,1.164 v 1.8 q 0,0.744 0.384,1.164 0.396,0.42 1.056,0.42 z m 4.60802,0.816 v -0.996 l 2.916,-3.12 q 0.636,-0.672 0.9,-1.2 0.264,-0.528 0.264,-1.032 0,-0.72 -0.42,-1.14 -0.408,-0.432 -1.116,-0.432 -0.732,0 -1.164,0.444 -0.42,0.432 -0.42,1.176 h -1.08 q 0.036,-1.188 0.756,-1.884 0.72,-0.696 1.908,-0.696 1.212,0 1.92,0.684 0.72,0.684 0.72,1.86 0,0.624 -0.348,1.32 -0.336,0.696 -1.164,1.56 l -2.364,2.472 h 3.984 V 306 Z m 7.27198,2.16 v -8.76 h 1.08 v 1.26 h 0.012 q 0.084,-0.648 0.564,-1.008 0.48,-0.372 1.224,-0.372 0.996,0 1.584,0.66 0.588,0.648 0.588,1.788 v 1.932 q 0,1.14 -0.588,1.8 -0.588,0.66 -1.584,0.66 -0.744,0 -1.224,-0.372 -0.48,-0.372 -0.564,-1.008 h -0.036 l 0.024,1.5 v 1.92 z m 2.52,-2.976 q 0.684,0 1.068,-0.36 0.384,-0.36 0.384,-1.164 v -1.92 q 0,-0.816 -0.384,-1.164 -0.384,-0.36 -1.068,-0.36 -0.66,0 -1.056,0.42 -0.384,0.42 -0.384,1.164 v 1.8 q 0,0.744 0.384,1.164 0.396,0.42 1.056,0.42 z M 366.26018,306 q -0.816,0 -1.308,-0.468 -0.492,-0.48 -0.492,-1.272 v -3.876 h -1.896 V 299.4 h 1.896 v -1.86 h 1.08 v 1.86 h 2.7 v 0.984 h -2.7 v 3.876 q 0,0.336 0.192,0.552 0.204,0.204 0.528,0.204 h 1.92 V 306 Z m 5.96402,0.12 q -1.02,0 -1.62,-0.564 -0.6,-0.576 -0.6,-1.5 0,-0.612 0.276,-1.068 0.276,-0.456 0.768,-0.708 0.492,-0.264 1.128,-0.264 h 2.04 V 301.5 q 0,-1.284 -1.404,-1.284 -0.624,0 -1.008,0.228 -0.384,0.228 -0.408,0.636 h -1.08 q 0.06,-0.78 0.72,-1.284 0.672,-0.516 1.776,-0.516 1.2,0 1.836,0.576 0.648,0.576 0.648,1.608 V 306 h -1.068 v -1.2 h -0.024 q -0.096,0.612 -0.612,0.972 -0.516,0.348 -1.368,0.348 z m 0.264,-0.912 q 0.792,0 1.26,-0.384 0.468,-0.384 0.468,-1.044 v -0.924 h -1.92 q -0.528,0 -0.864,0.324 -0.324,0.312 -0.324,0.84 0,0.552 0.36,0.876 0.372,0.312 1.02,0.312 z m 5.25601,0.792 v -6.6 h 1.08 v 1.26 h 0.024 q 0.084,-0.636 0.54,-1.008 0.456,-0.372 1.224,-0.372 1.032,0 1.584,0.624 0.564,0.612 0.564,1.752 v 0.564 h -1.08 v -0.564 q 0,-1.44 -1.404,-1.44 -0.708,0 -1.08,0.408 -0.372,0.408 -0.372,1.176 v 4.2 z m 7.78798,2.16 v -0.984 h 1.86 q 0.564,0 0.888,-0.324 0.324,-0.312 0.324,-0.852 v -0.6 l 0.024,-1.08 h -0.036 q -0.096,0.588 -0.564,0.912 -0.468,0.312 -1.176,0.312 -1.02,0 -1.608,-0.648 -0.588,-0.648 -0.588,-1.776 v -1.392 q 0,-1.128 0.588,-1.788 0.588,-0.66 1.608,-0.66 0.708,0 1.176,0.336 0.468,0.336 0.564,0.924 h 0.024 v -1.14 h 1.068 v 6.6 q 0,0.996 -0.624,1.572 -0.612,0.588 -1.68,0.588 z m 1.644,-3.516 q 0.672,0 1.056,-0.42 0.384,-0.42 0.384,-1.164 v -1.26 q 0,-0.744 -0.384,-1.164 -0.384,-0.42 -1.056,-0.42 -0.684,0 -1.068,0.396 -0.372,0.396 -0.372,1.068 v 1.5 q 0,0.672 0.372,1.068 0.384,0.396 1.068,0.396 z m 7.22401,1.476 q -1.164,0 -1.884,-0.696 -0.708,-0.708 -0.708,-1.944 v -1.56 q 0,-1.236 0.708,-1.932 0.72,-0.708 1.884,-0.708 0.78,0 1.356,0.312 0.588,0.312 0.912,0.876 0.324,0.564 0.324,1.332 v 1.176 h -4.128 v 0.624 q 0,0.732 0.42,1.164 0.42,0.42 1.116,0.42 0.6,0 0.984,-0.228 0.396,-0.24 0.48,-0.636 h 1.08 q -0.108,0.828 -0.804,1.32 -0.696,0.48 -1.74,0.48 z m -1.536,-3.984 h 3.072 V 301.8 q 0,-0.78 -0.408,-1.2 -0.396,-0.432 -1.128,-0.432 -0.732,0 -1.14,0.432 -0.396,0.42 -0.396,1.2 z m 9.39601,3.864 q -0.816,0 -1.308,-0.468 -0.492,-0.48 -0.492,-1.272 v -3.876 h -1.896 V 299.4 h 1.896 v -1.86 h 1.08 v 1.86 h 2.7 v 0.984 h -2.7 v 3.876 q 0,0.336 0.192,0.552 0.204,0.204 0.528,0.204 h 1.92 V 306 Z m 6.27599,0.096 q -1.104,0 -1.716,-0.492 -0.6,-0.504 -0.6,-1.416 h 1.08 q 0,0.456 0.324,0.72 0.324,0.252 0.912,0.252 h 0.528 q 0.6,0 0.924,-0.264 0.336,-0.264 0.336,-0.744 0,-0.852 -0.78,-0.96 l -1.824,-0.264 q -0.672,-0.096 -1.044,-0.552 -0.372,-0.468 -0.372,-1.224 0,-0.864 0.588,-1.356 0.6,-0.492 1.644,-0.492 h 0.528 q 0.96,0 1.56,0.48 0.612,0.468 0.66,1.236 h -1.092 q -0.024,-0.348 -0.336,-0.576 -0.3,-0.228 -0.792,-0.228 h -0.528 q -0.552,0 -0.864,0.252 -0.312,0.252 -0.312,0.684 0,0.696 0.636,0.792 l 1.704,0.24 q 1.68,0.24 1.68,1.968 0,0.924 -0.612,1.44 -0.6,0.504 -1.704,0.504 z"
     id="text10"
     style="font-size:12px;fill:#5e7c4e"
     aria-label="embeddable in mobile / WASM / no-libp2p targets" />
  <path
     d="m 1103.6509,65 -2.057,-6.05 h 1.067 l 1.32,4.07 q 0.121,0.363 0.209,0.704 0.088,0.33 0.132,0.517 0.055,-0.187 0.132,-0.517 0.077,-0.341 0.187,-0.704 l 1.32,-4.07 h 1.045 l -2.057,6.05 z m 8.849,0.11 q -1.111,0 -1.771,-0.638 -0.649,-0.649 -0.649,-1.727 v -3.52 q 0,-1.078 0.649,-1.716 0.66,-0.649 1.771,-0.649 1.111,0 1.76,0.649 0.66,0.638 0.66,1.716 v 3.52 q 0,0.715 -0.297,1.254 -0.297,0.528 -0.847,0.825 -0.539,0.286 -1.276,0.286 z m 0,-0.847 q 0.66,0 1.056,-0.418 0.407,-0.429 0.407,-1.1 v -3.52 q 0,-0.671 -0.407,-1.089 -0.396,-0.429 -1.056,-0.429 -0.66,0 -1.067,0.429 -0.396,0.418 -0.396,1.089 v 3.52 q 0,0.671 0.396,1.1 0.407,0.418 1.067,0.418 z m 0,-2.673 q -0.297,0 -0.484,-0.165 -0.176,-0.165 -0.176,-0.473 0,-0.297 0.176,-0.451 0.187,-0.165 0.484,-0.165 0.297,0 0.473,0.165 0.187,0.154 0.187,0.451 0,0.308 -0.187,0.473 -0.176,0.165 -0.473,0.165 z m 8.2001,3.52 q -0.407,0 -0.66,-0.242 -0.242,-0.242 -0.242,-0.627 0,-0.407 0.242,-0.66 0.253,-0.253 0.66,-0.253 0.407,0 0.649,0.253 0.253,0.253 0.253,0.66 0,0.385 -0.253,0.627 -0.242,0.242 -0.649,0.242 z m 5.89,-0.11 v -0.902 h 2.178 v -6.27 l -2.178,1.628 v -1.133 l 1.815,-1.353 h 1.353 v 7.128 h 1.782 V 65 Z m 8.2,0 v -0.902 h 2.178 v -6.27 l -2.178,1.628 v -1.133 l 1.815,-1.353 h 1.353 v 7.128 h 1.782 V 65 Z m 10.51,0.11 q -0.407,0 -0.66,-0.242 -0.242,-0.242 -0.242,-0.627 0,-0.407 0.242,-0.66 0.253,-0.253 0.66,-0.253 0.407,0 0.649,0.253 0.253,0.253 0.253,0.66 0,0.385 -0.253,0.627 -0.242,0.242 -0.649,0.242 z m 5.89,-0.11 v -0.902 h 2.178 v -6.27 l -2.178,1.628 v -1.133 l 1.815,-1.353 h 1.353 v 7.128 h 1.782 V 65 Z m 18.71,-2.86 q -0.407,0 -0.66,-0.242 -0.242,-0.242 -0.242,-0.627 0,-0.407 0.242,-0.66 0.253,-0.253 0.66,-0.253 0.407,0 0.649,0.253 0.253,0.253 0.253,0.66 0,0.385 -0.253,0.627 -0.242,0.242 -0.649,0.242 z m 13.892,2.86 v -8.03 h 1.463 l 1.023,3.476 1.067,-3.476 h 1.463 V 65 h -0.957 v -3.795 q 0,-0.539 0.011,-1.232 0.022,-0.704 0.055,-1.419 0.033,-0.715 0.077,-1.287 l -1.298,4.147 h -0.858 l -1.243,-4.048 q 0.088,0.814 0.121,1.782 0.033,0.968 0.033,2.057 V 65 Z m 8.563,0 v -0.902 h 1.639 v -6.226 h -1.639 V 56.97 h 4.29 v 0.902 h -1.639 v 6.226 h 1.639 V 65 Z m 9.85,0 v -7.128 h -2.2 V 56.97 h 5.39 v 0.902 h -2.2 V 65 Z"
     id="text11"
     style="font-size:11px;letter-spacing:1.6;text-anchor:end;fill:#a8d68a"
     aria-label="v0.11.1 · MIT" />
</svg>
